<?xml version="1.0" encoding="UTF-8" standalone="no"?>
<!-- Created with Inkscape (http://www.inkscape.org/) -->

<svg
   inkscape:export-ydpi="96"
   inkscape:export-xdpi="96"
   inkscape:export-filename="/home/bc/love_projects/v11/autonomy/assets/bone.png"
   sodipodi:docname="bone.svg"
   inkscape:version="1.1.2 (08b2f3d93c, 2022-04-05)"
   id="svg5"
   version="1.1"
   viewBox="0 0 10.583332 10.583333"
   height="0.41666669in"
   width="0.41666663in"
   xmlns:inkscape="http://www.inkscape.org/namespaces/inkscape"
   xmlns:sodipodi="http://sodipodi.sourceforge.net/DTD/sodipodi-0.dtd"
   xmlns="http://www.w3.org/2000/svg"
   xmlns:svg="http://www.w3.org/2000/svg">
  <sodipodi:namedview
     id="namedview7"
     pagecolor="#ffffff"
     bordercolor="#666666"
     borderopacity="1.0"
     inkscape:pageshadow="2"
     inkscape:pageopacity="0.0"
     inkscape:pagecheckerboard="0"
     inkscape:document-units="px"
     showgrid="false"
     units="in"
     width="192.5px"
     showguides="true"
     inkscape:zoom="4.1360884"
     inkscape:cx="10.879845"
     inkscape:cy="29.496468"
     inkscape:window-width="1366"
     inkscape:window-height="719"
     inkscape:window-x="0"
     inkscape:window-y="0"
     inkscape:window-maximized="1"
     inkscape:current-layer="layer1"
     inkscape:lockguides="true"
     inkscape:snap-global="true"
     inkscape:snap-others="true"
     inkscape:object-nodes="true"
     inkscape:snap-nodes="true"
     inkscape:snap-bbox="false"
     inkscape:snap-midpoints="true"
     inkscape:object-paths="true"
     inkscape:snap-object-midpoints="true"
     inkscape:snap-center="true"
     inkscape:snap-intersection-paths="true">
    <inkscape:grid
       type="axonomgrid"
       id="grid826"
       gridanglex="26.568"
       gridanglez="26.57"
       units="px"
       spacingy="4.2333333"
       originx="-1.4980923"
       originy="-4.834022"
       visible="true"
       snapvisiblegridlinesonly="true"
       enabled="true" />
  </sodipodi:namedview>
  <defs
     id="defs2" />
  <g
     inkscape:label="Layer 1"
     inkscape:groupmode="layer"
     id="layer1"
     transform="translate(-1.4980923,-4.8340217)">
    <ellipse
       style="fill:#ffffff;fill-opacity:1;fill-rule:evenodd;stroke:#7f800c;stroke-width:0.503968;stroke-miterlimit:4;stroke-dasharray:none;stroke-opacity:1"
       id="path848"
       cx="6.7897587"
       cy="10.125689"
       rx="5.0396824"
       ry="5.0396829" />
    <path
       id="path1230"
       style="fill:#7f800c;fill-opacity:1;fill-rule:evenodd;stroke-width:0.0245562"
       d="M 3.9889908,7.6014081 C 3.6166435,7.4606049 3.2006544,7.6483147 3.0598614,8.0206659 2.9618298,8.2798628 3.0210773,8.57231 3.2122618,8.7729132 2.9361801,8.7968259 2.698255,8.9769024 2.600259,9.2361128 2.4594559,9.6084601 2.6471656,10.024449 3.0195167,10.165243 3.3137582,10.276717 3.6463067,10.18444 3.841035,9.9372842 5.6024836,10.603349 7.3639319,11.269413 9.1253806,11.935477 9.107855,12.249639 9.2961456,12.538864 9.5905268,12.649968 9.962874,12.79077 10.378863,12.60306 10.519655,12.230709 10.617687,11.971512 10.558441,11.679066 10.367256,11.478463 10.643338,11.454549 10.881262,11.274472 10.979258,11.015263 11.120062,10.642915 10.932352,10.226926 10.560001,10.086134 10.276781,9.9787383 9.956635,10.059872 9.7587502,10.289195 7.9909713,9.6207364 6.2231925,8.9522784 4.4554137,8.2838203 4.4587722,7.9809408 4.2724086,7.708278 3.9889908,7.6014081 Z"
       sodipodi:nodetypes="ccccccccccccccc" />
  </g>
</svg>
