<?xml version="1.0" encoding="UTF-8" standalone="no"?>
<!-- Created with Inkscape (http://www.inkscape.org/) -->

<svg
   width="79.939873"
   height="53.873863"
   viewBox="0 0 21.150758 14.254126"
   version="1.1"
   id="svg5"
   inkscape:version="1.1.2 (08b2f3d93c, 2022-04-05)"
   sodipodi:docname="car_front.svg"
   inkscape:export-filename="/home/bc/love_projects/v11/autonomy/assets/car_front.png"
   inkscape:export-xdpi="96"
   inkscape:export-ydpi="96"
   xmlns:inkscape="http://www.inkscape.org/namespaces/inkscape"
   xmlns:sodipodi="http://sodipodi.sourceforge.net/DTD/sodipodi-0.dtd"
   xmlns="http://www.w3.org/2000/svg"
   xmlns:svg="http://www.w3.org/2000/svg">
  <sodipodi:namedview
     id="namedview7"
     pagecolor="#ffffff"
     bordercolor="#666666"
     borderopacity="1.0"
     inkscape:pageshadow="2"
     inkscape:pageopacity="0.0"
     inkscape:pagecheckerboard="0"
     inkscape:document-units="px"
     showgrid="false"
     units="px"
     width="192.5px"
     showguides="false"
     inkscape:zoom="2.9829349"
     inkscape:cx="5.3638449"
     inkscape:cy="53.97369"
     inkscape:window-width="1366"
     inkscape:window-height="719"
     inkscape:window-x="0"
     inkscape:window-y="0"
     inkscape:window-maximized="1"
     inkscape:current-layer="layer1"
     inkscape:lockguides="true"
     inkscape:snap-global="true"
     inkscape:snap-others="true"
     inkscape:object-nodes="true"
     inkscape:snap-nodes="true"
     inkscape:snap-bbox="false"
     inkscape:snap-midpoints="true"
     inkscape:object-paths="true">
    <inkscape:grid
       type="axonomgrid"
       id="grid826"
       gridanglex="26.568"
       gridanglez="26.57"
       units="px"
       spacingy="4.2333333"
       originx="1.5720097e-07"
       originy="0"
       visible="true"
       snapvisiblegridlinesonly="true"
       enabled="true" />
  </sodipodi:namedview>
  <defs
     id="defs2" />
  <g
     inkscape:label="Layer 1"
     inkscape:groupmode="layer"
     id="layer1">
    <path
       style="fill:#000b80;fill-opacity:1;stroke:none;stroke-width:0.264583px;stroke-linecap:butt;stroke-linejoin:miter;stroke-opacity:1"
       d="M 8.4228515,13.156518 20.183374,7.286075 18.515775,4.589082 6.1009755,10.785002 Z"
       id="path39057" />
    <path
       style="fill:#000b80;fill-opacity:1;stroke:none;stroke-width:0.264583px;stroke-linecap:butt;stroke-linejoin:miter;stroke-opacity:1"
       d="M 0,7.734515 6.1009755,10.785002 6.2177645,14.254041 0.1167892,11.203554 Z"
       id="path33123"
       sodipodi:nodetypes="ccccc" />
    <path
       style="fill:#000fb3;fill-opacity:1;stroke:none;stroke-width:0.264583px;stroke-linecap:butt;stroke-linejoin:miter;stroke-opacity:1"
       d="M -8.8e-5,7.734729 5.0081195,5.251057 11.109094,8.301544 6.1008875,10.785216 Z"
       id="path33125"
       sodipodi:nodetypes="ccccc" />
    <path
       id="path33127"
       style="fill:#000b80;fill-opacity:1;stroke:none;stroke-width:0.264583px;stroke-linecap:butt;stroke-linejoin:miter;stroke-opacity:1"
       d="M 12.338421,4.751863 10.579873,8.036933 11.10904,8.301517 12.867589,5.016446 Z" />
    <path
       id="path33129"
       style="fill:#3ba499;fill-opacity:1;stroke:none;stroke-width:0.264583px;stroke-linecap:butt;stroke-linejoin:miter;stroke-opacity:1"
       d="M 7.2958355,2.230569 5.5372865,5.51564 10.579873,8.036933 12.338421,4.751863 Z" />
    <path
       id="path33131"
       style="fill:#000b80;fill-opacity:1;stroke:none;stroke-width:0.264583px;stroke-linecap:butt;stroke-linejoin:miter;stroke-opacity:1"
       d="M 6.7666695,1.965986 5.0081195,5.251057 5.5372865,5.51564 7.2958355,2.230569 Z" />
    <path
       style="fill:#000fb3;fill-opacity:1;stroke:none;stroke-width:0.264583px;stroke-linecap:butt;stroke-linejoin:miter;stroke-opacity:1"
       d="M 6.7667565,1.965772 10.697784,0 16.798757,3.050488 12.867732,5.01626 Z"
       id="path33133" />
    <path
       style="fill:#000fb3;fill-opacity:1;stroke:none;stroke-width:0.264583px;stroke-linecap:butt;stroke-linejoin:miter;stroke-opacity:1"
       d="M 12.414991,1.538408 18.515965,4.588895 21.150536,3.274793 15.049563,0.224306 Z"
       id="path33135"
       sodipodi:nodetypes="ccccc" />
    <path
       id="path33121"
       style="fill:#3344ff;fill-opacity:1;stroke:none;stroke-width:0.264583px;stroke-linecap:butt;stroke-linejoin:miter;stroke-opacity:1"
       d="M 16.798568,3.0506751 12.867541,5.0164467 11.108992,8.3015171 6.1010294,10.785087 6.217818,14.254126 8.4228515,13.156518 A 1.8910981,2.0244872 0 0 1 8.1494832,12.111104 1.8910981,2.0244872 0 0 1 10.040841,10.08642 1.8910981,2.0244872 0 0 1 11.829879,11.454297 L 16.773763,8.9888146 A 1.8910981,2.0244872 0 0 1 16.665242,8.3175376 1.8910981,2.0244872 0 0 1 18.5566,6.2933714 1.8910981,2.0244872 0 0 1 20.183374,7.2860756 L 21.14559,6.8080685 21.150757,3.2749508 18.515775,4.5890825 Z" />
    <ellipse
       style="fill:#323232;fill-opacity:1;fill-rule:evenodd;stroke:none;stroke-width:0.020926;stroke-miterlimit:4;stroke-dasharray:none;stroke-opacity:1"
       id="ellipse34752"
       cx="10.040739"
       cy="12.111065"
       rx="1.4956787"
       ry="1.6011769" />
    <ellipse
       style="fill:#323232;fill-opacity:1;fill-rule:evenodd;stroke:none;stroke-width:0.020926;stroke-miterlimit:4;stroke-dasharray:none;stroke-opacity:1"
       id="ellipse34931"
       cx="18.556513"
       cy="8.3177567"
       rx="1.4956787"
       ry="1.6011769" />
    <path
       id="path34969"
       style="fill:#a2b300;fill-opacity:1;stroke:none;stroke-width:0.264583;stroke-linecap:butt;stroke-linejoin:miter;stroke-miterlimit:4;stroke-dasharray:none;stroke-opacity:1"
       d="M 4.6659745,10.464177 4.6949135,11.317355 5.8648685,11.902848 5.8364465,11.04967 Z" />
    <path
       id="path35479"
       style="fill:#a2b300;fill-opacity:1;stroke:none;stroke-width:0.264583;stroke-linecap:butt;stroke-linejoin:miter;stroke-miterlimit:4;stroke-dasharray:none;stroke-opacity:1"
       d="M 0.2645834,8.263683 0.2935224,9.116861 1.4634774,9.702354 1.4350554,8.849176 Z" />
    <path
       id="path35709"
       style="fill:#919289;fill-opacity:1;stroke:none;stroke-width:0.264583;stroke-linecap:butt;stroke-linejoin:miter;stroke-miterlimit:4;stroke-dasharray:none;stroke-opacity:1"
       d="M 1.5022623,11.057324 1.5312008,11.910502 2.7011555,12.495996 V 12.495477 L 3.6333985,12.962118 4.8033525,13.547611 4.7749305,12.694433 3.6049765,12.109456 V 12.10894 H 3.6044595 L 2.6727334,11.642818 Z" />
    <path
       id="path36165"
       style="fill:#3ba499;fill-opacity:1;stroke:none;stroke-width:0.264583px;stroke-linecap:butt;stroke-linejoin:miter;stroke-opacity:1"
       d="M 14.820135,4.4376702 13.132125,5.2810301 11.594751,8.1537229 14.812383,6.4452994 Z"
       sodipodi:nodetypes="ccccc" />
    <path
       id="path38215"
       style="fill:#3ba499;fill-opacity:1;stroke:none;stroke-width:0.238458px;stroke-linecap:butt;stroke-linejoin:miter;stroke-opacity:1"
       d="M 15.079627,6.311352 18.247664,4.723465 16.835516,3.424812 15.087378,4.303723 Z"
       sodipodi:nodetypes="ccccc" />
  </g>
</svg>
