<?xml version="1.0" encoding="UTF-8" standalone="no"?>
<!-- Created with Inkscape (http://www.inkscape.org/) -->

<svg
   inkscape:export-ydpi="96"
   inkscape:export-xdpi="96"
   inkscape:export-filename="/home/bc/love_projects/v11/autonomy/assets/tiles.png"
   sodipodi:docname="tiles.svg"
   inkscape:version="1.1.2 (08b2f3d93c, 2022-04-05)"
   id="svg5"
   version="1.1"
   viewBox="0 0 135.46668 76.2"
   height="288"
   width="512.00006"
   xmlns:inkscape="http://www.inkscape.org/namespaces/inkscape"
   xmlns:sodipodi="http://sodipodi.sourceforge.net/DTD/sodipodi-0.dtd"
   xmlns="http://www.w3.org/2000/svg"
   xmlns:svg="http://www.w3.org/2000/svg">
  <sodipodi:namedview
     id="namedview7"
     pagecolor="#ffffff"
     bordercolor="#666666"
     borderopacity="1.0"
     inkscape:pageshadow="2"
     inkscape:pageopacity="0.0"
     inkscape:pagecheckerboard="0"
     inkscape:document-units="px"
     showgrid="false"
     units="px"
     width="192.5px"
     showguides="false"
     inkscape:zoom="0.85394939"
     inkscape:cx="162.77311"
     inkscape:cy="159.26002"
     inkscape:window-width="1366"
     inkscape:window-height="719"
     inkscape:window-x="0"
     inkscape:window-y="0"
     inkscape:window-maximized="1"
     inkscape:current-layer="layer1"
     inkscape:lockguides="true"
     inkscape:snap-global="true"
     inkscape:snap-others="false"
     inkscape:object-nodes="true"
     inkscape:snap-nodes="true"
     inkscape:snap-bbox="false"
     inkscape:snap-midpoints="false"
     inkscape:object-paths="false">
    <inkscape:grid
       type="axonomgrid"
       id="grid826"
       gridanglex="26.568"
       gridanglez="26.57"
       units="px"
       spacingy="4.2333333"
       originx="6.2880387e-08"
       originy="0"
       visible="true"
       snapvisiblegridlinesonly="true"
       enabled="true" />
  </sodipodi:namedview>
  <defs
     id="defs2" />
  <g
     inkscape:label="Layer 1"
     inkscape:groupmode="layer"
     id="layer1">
    <path
       style="fill:#00b300;fill-opacity:1;stroke:none;stroke-width:0.0199716;stroke-linecap:butt;stroke-linejoin:miter;stroke-miterlimit:4;stroke-dasharray:none;stroke-opacity:1"
       d="M 33.866666,33.866667 50.8,25.4 67.733333,33.866667 50.8,42.333333 Z"
       id="path15037"
       sodipodi:nodetypes="ccccc" />
    <path
       style="fill:#00b300;fill-opacity:1;stroke:none;stroke-width:0.0199716;stroke-linecap:butt;stroke-linejoin:miter;stroke-miterlimit:4;stroke-dasharray:none;stroke-opacity:1"
       d="M 0,33.866667 16.933334,25.4 33.866666,33.866667 16.933334,42.333333 Z"
       id="path14955"
       sodipodi:nodetypes="ccccc" />
    <path
       style="fill:#00b300;fill-opacity:1;stroke:none;stroke-width:0.0199716;stroke-linecap:butt;stroke-linejoin:miter;stroke-miterlimit:4;stroke-dasharray:none;stroke-opacity:1"
       d="M 3.1440195e-8,8.4666667 16.933334,0 33.866666,8.4666667 16.933334,16.933333 Z"
       id="path6572"
       sodipodi:nodetypes="ccccc" />
    <path
       style="fill:#008000;fill-opacity:1;stroke:none;stroke-width:0.02;stroke-linecap:butt;stroke-linejoin:miter;stroke-miterlimit:4;stroke-dasharray:none;stroke-opacity:1"
       d="M -3.1440194e-8,8.4666667 V 16.933333 L 16.933334,25.4 V 16.933333 Z"
       id="path1020"
       sodipodi:nodetypes="ccccc" />
    <path
       style="fill:#33ff33;fill-opacity:1;stroke:none;stroke-width:0.02;stroke-linecap:butt;stroke-linejoin:miter;stroke-miterlimit:4;stroke-dasharray:none;stroke-opacity:1"
       d="M 16.933334,25.4 V 16.933333 L 33.866666,8.4666667 V 16.933333 Z"
       id="path1052"
       sodipodi:nodetypes="ccccc" />
    <path
       id="path2858"
       style="fill:#c5c872;fill-opacity:0.957411;stroke:none;stroke-width:0.0099858;stroke-linecap:butt;stroke-linejoin:miter;stroke-miterlimit:4;stroke-dasharray:none;stroke-opacity:1"
       d="M 20.108332,26.9875 16.326135,29.104167 11.641666,31.220833 7.9256141,33.293575 3.1749992,35.454167 5.2916658,36.5125 11.641666,39.6875 13.758332,40.745833 16.27394,39.755196 17.69711,38.520646 20.1936,37.312968 22.433771,36.139396 24.707018,34.762219 27.13271,33.955033 28.95947,33.062581 30.691666,32.279167 28.574999,31.220833 22.224999,28.045833 Z" />
    <path
       style="fill:#33ff33;fill-opacity:1;stroke:none;stroke-width:0.02;stroke-linecap:butt;stroke-linejoin:miter;stroke-miterlimit:4;stroke-dasharray:none;stroke-opacity:1"
       d="M 84.666667,25.4 V 16.933334 L 101.6,8.466666 V 16.933334 Z"
       id="path3777"
       sodipodi:nodetypes="ccccc" />
    <path
       style="fill:#33ff33;fill-opacity:1;stroke:none;stroke-width:0.02;stroke-linecap:butt;stroke-linejoin:miter;stroke-miterlimit:4;stroke-dasharray:none;stroke-opacity:1"
       d="M 118.53333,25.4 V 16.933334 L 135.46667,8.466666 V 16.933334 Z"
       id="path3783"
       sodipodi:nodetypes="ccccc" />
    <path
       style="fill:#ecfbec;fill-opacity:1;stroke:none;stroke-width:0.0199716;stroke-linecap:butt;stroke-linejoin:miter;stroke-miterlimit:4;stroke-dasharray:none;stroke-opacity:1"
       d="M 33.866666,8.466666 50.8,0 67.733333,8.466666 50.8,16.933334 Z"
       id="path3785"
       sodipodi:nodetypes="ccccc" />
    <path
       style="fill:#33ff33;fill-opacity:1;stroke:none;stroke-width:0.02;stroke-linecap:butt;stroke-linejoin:miter;stroke-miterlimit:4;stroke-dasharray:none;stroke-opacity:1"
       d="M 50.8,25.4 V 16.933334 L 67.733333,8.466666 V 16.933334 Z"
       id="path3789"
       sodipodi:nodetypes="ccccc" />
    <path
       id="path840"
       style="fill:#b7bb53;fill-opacity:0.957411;stroke:none;stroke-width:0.0099858;stroke-linecap:butt;stroke-linejoin:miter;stroke-miterlimit:4;stroke-dasharray:none;stroke-opacity:1"
       d="M 21.166664,27.516667 17.38433,29.633333 12.699996,31.75 8.984126,33.822585 4.233329,35.983333 12.699997,40.216667 15.215443,39.226153 16.638993,37.991489 19.13545,36.783953 21.375548,35.610326 23.648877,34.233241 26.074122,33.42584 27.9012,32.533665 29.63333,31.75 Z"
       sodipodi:nodetypes="ccccccccccccccc" />
    <path
       id="path3213"
       style="fill:#bdc86d;fill-opacity:1;stroke:none;stroke-width:0.0099858;stroke-linecap:butt;stroke-linejoin:miter;stroke-miterlimit:4;stroke-dasharray:none;stroke-opacity:1"
       d="M 47.624999,26.9875 45.508332,28.045833 39.158332,31.220833 37.041665,32.279167 39.158332,33.3375 41.518394,34.073372 43.391665,35.454167 45.508332,36.5125 47.146992,37.551713 49.741665,39.144897 51.858332,39.6875 53.974999,40.745833 56.091665,39.6875 62.441665,36.5125 64.558332,35.454167 62.441665,34.395833 60.911527,33.208826 58.501337,32.22594 56.091665,31.530375 53.974999,30.1625 51.41598,29.252478 49.741665,28.045833 Z" />
    <path
       id="path1597"
       style="fill:#b7bb53;fill-opacity:0.957411;stroke:none;stroke-width:0.0099858;stroke-linecap:butt;stroke-linejoin:miter;stroke-miterlimit:4;stroke-dasharray:none;stroke-opacity:1"
       d="M 46.566662,27.516667 48.683329,28.575 50.357868,29.781569 52.916662,30.691667 55.033329,32.05936 57.443244,32.754915 59.853159,33.737765 61.383329,34.925 63.499996,35.983333 55.033328,40.216667 52.916661,39.158334 50.799995,38.6156 48.205109,37.022332 46.566662,35.983333 44.449996,34.925 42.57695,33.544416 40.216663,32.808333 38.099996,31.75 Z"
       sodipodi:nodetypes="ccccccccccccccccccc" />
    <path
       id="path2454"
       style="fill-rule:evenodd;stroke-width:0.01"
       d="M 52.681566,1.881566 53.622266,1.411196 52.211166,0.705636 51.270466,1.176006 Z M 50.329766,1.646376 51.270466,1.176006 49.859366,0.470446 48.918566,0.940816 Z M 50.800066,2.822306 51.740866,2.351936 50.329766,1.646376 49.388966,2.116746 Z M 48.448266,2.587116 49.388966,2.116746 47.977866,1.411196 47.037166,1.881566 Z M 47.507466,3.057486 48.448266,2.587116 49.859366,3.292676 48.918566,3.763066 Z M 45.155666,2.822306 46.096366,2.351936 47.507466,3.057486 46.566766,3.527856 Z M 45.625966,3.998266 46.566766,3.527856 47.977866,4.233366 47.037166,4.703766 Z M 43.274169,3.763066 44.214866,3.292676 45.625966,3.998266 44.685266,4.468566 Z M 43.744569,4.938966 44.685266,4.468566 46.096366,5.174166 45.155666,5.644566 Z M 55.503766,3.292676 56.444566,2.822306 55.033466,2.116746 54.092666,2.587116 Z M 53.151966,3.057486 54.092666,2.587116 52.681566,1.881566 51.740866,2.351936 Z M 53.622266,4.233366 54.563066,3.763066 53.151966,3.057486 52.211166,3.527856 Z M 51.270466,3.998266 52.211166,3.527856 50.800066,2.822306 49.859366,3.292676 Z M 50.329766,4.468566 51.270466,3.998266 52.681566,4.703766 51.740866,5.174166 Z M 47.977866,4.233366 48.918566,3.763066 50.329766,4.468566 49.388966,4.938966 Z M 48.448266,5.409366 49.388966,4.938966 50.800066,5.644566 49.859366,6.114866 Z M 46.096366,5.174166 47.037166,4.703766 48.448266,5.409366 47.507466,5.879666 Z M 46.566766,6.350066 47.507466,5.879666 48.918566,6.585266 47.977866,7.055666 Z M 58.325966,4.703766 59.266766,4.233366 57.855666,3.527856 56.914866,3.998266 Z M 55.974166,4.468566 56.914866,3.998266 55.503766,3.292676 54.563066,3.763066 Z M 56.444566,5.644566 57.385266,5.174166 55.974166,4.468566 55.033466,4.938966 Z M 54.092666,5.409366 55.033466,4.938966 53.622266,4.233366 52.681566,4.703766 Z M 53.151966,5.879666 54.092666,5.409366 55.503766,6.114866 54.563066,6.585266 Z M 50.800066,5.644566 51.740866,5.174166 53.151966,5.879666 52.211166,6.350066 Z M 51.270466,6.820466 52.211166,6.350066 53.622266,7.055666 52.681566,7.525966 Z M 48.918566,6.585266 49.859366,6.114866 51.270466,6.820466 50.329766,7.290866 Z M 49.388966,7.761166 50.329766,7.290866 51.740866,7.996366 50.800066,8.466766 Z M 61.148266,6.114866 62.088966,5.644566 60.677866,4.938966 59.737166,5.409366 Z M 58.796366,5.879666 59.737166,5.409366 58.325966,4.703766 57.385266,5.174166 Z M 59.266766,7.055666 60.207466,6.585266 58.796366,5.879666 57.855666,6.350066 Z M 56.914866,6.820466 57.855666,6.350066 56.444566,5.644566 55.503766,6.114866 Z M 55.974166,7.290866 56.914866,6.820466 58.325966,7.525966 57.385266,7.996366 Z M 53.622266,7.055666 54.563066,6.585266 55.974166,7.290866 55.033466,7.761166 Z M 54.092666,8.231566 55.033466,7.761166 56.444566,8.466766 55.503766,8.937166 Z M 51.740866,7.996366 52.681566,7.525966 54.092666,8.231566 53.151966,8.701966 Z M 52.211166,9.172266 53.151966,8.701966 54.563066,9.407466 53.622266,9.877866 Z M 63.970466,7.525966 64.911166,7.055666 63.500066,6.350066 62.559366,6.820466 Z M 61.618566,7.290866 62.559366,6.820466 61.148266,6.114866 60.207466,6.585266 Z M 62.088966,8.466766 63.029766,7.996366 61.618566,7.290866 60.677866,7.761166 Z M 59.737166,8.231566 60.677866,7.761166 59.266766,7.055666 58.325966,7.525966 Z M 58.796366,8.701966 59.737166,8.231566 61.148266,8.937166 60.207466,9.407466 Z M 56.444566,8.466766 57.385266,7.996366 58.796366,8.701966 57.855666,9.172266 Z M 56.914866,9.642666 57.855666,9.172266 59.266766,9.877866 58.325966,10.348266 Z M 54.563066,9.407466 55.503766,8.937166 56.914866,9.642666 55.974166,10.113066 Z M 55.033466,10.583366 55.974166,10.113066 57.385266,10.818566 56.444566,11.288966 Z M 66.792663,8.937166 67.733463,8.466766 66.322263,7.761166 65.381566,8.231566 Z M 64.440866,8.701966 65.381566,8.231566 63.970466,7.525966 63.029766,7.996366 Z M 64.911166,9.877866 65.851966,9.407466 64.440866,8.701966 63.500066,9.172266 Z M 62.559366,9.642666 63.500066,9.172266 62.088966,8.466766 61.148266,8.937166 Z M 61.618566,10.113066 62.559366,9.642666 63.970466,10.348266 63.029766,10.818566 Z M 59.266766,9.877866 60.207466,9.407466 61.618566,10.113066 60.677866,10.583366 Z M 59.737166,11.053766 60.677866,10.583366 62.088966,11.288966 61.148266,11.759366 Z M 57.385266,10.818566 58.325966,10.348266 59.737166,11.053766 58.796366,11.524166 Z M 57.855666,11.994566 58.796366,11.524166 60.207466,12.229666 59.266766,12.700066 Z M 48.918566,15.051866 47.977866,15.522236 49.388966,16.227796 50.329666,15.757426 Z M 51.270366,15.287056 50.329666,15.757426 51.740766,16.462986 52.681566,15.992616 Z M 50.800066,14.111126 49.859266,14.581496 51.270366,15.287056 52.211166,14.816686 Z M 53.151866,14.346316 52.211166,14.816686 53.622266,15.522236 54.562966,15.051866 Z M 54.092666,13.875946 53.151866,14.346316 51.740766,13.640756 52.681566,13.170366 Z M 56.444466,14.111126 55.503766,14.581496 54.092666,13.875946 55.033366,13.405576 Z M 55.974166,12.935166 55.033366,13.405576 53.622266,12.700066 54.562966,12.229666 Z M 58.325966,13.170366 57.385266,13.640756 55.974166,12.935166 56.914866,12.464866 Z M 57.855566,11.994466 56.914866,12.464866 55.503766,11.759266 56.444466,11.288866 Z M 46.096366,13.640756 45.155566,14.111126 46.566666,14.816686 47.507466,14.346316 Z M 48.448166,13.875946 47.507466,14.346316 48.918566,15.051866 49.859266,14.581496 Z M 47.977866,12.700066 47.037066,13.170366 48.448166,13.875946 49.388966,13.405576 Z M 50.329666,12.935166 49.388966,13.405576 50.800066,14.111126 51.740766,13.640756 Z M 51.270366,12.464866 50.329666,12.935166 48.918566,12.229666 49.859266,11.759266 Z M 53.622266,12.700066 52.681566,13.170366 51.270366,12.464866 52.211166,11.994466 Z M 53.151866,11.524066 52.211166,11.994466 50.800066,11.288866 51.740766,10.818566 Z M 55.503766,11.759266 54.562966,12.229666 53.151866,11.524066 54.092666,11.053766 Z M 55.033366,10.583366 54.092666,11.053766 52.681566,10.348166 53.622266,9.877766 Z M 43.274166,12.229666 42.333366,12.700066 43.744466,13.405576 44.685266,12.935166 Z M 45.625966,12.464866 44.685266,12.935166 46.096366,13.640756 47.037066,13.170366 Z M 45.155566,11.288866 44.214866,11.759266 45.625966,12.464866 46.566666,11.994466 Z M 47.507466,11.524066 46.566666,11.994466 47.977866,12.700066 48.918566,12.229666 Z M 48.448166,11.053766 47.507466,11.524066 46.096366,10.818566 47.037066,10.348166 Z M 50.800066,11.288866 49.859266,11.759266 48.448166,11.053766 49.388966,10.583366 Z M 50.329666,10.112966 49.388966,10.583366 47.977866,9.877766 48.918566,9.407466 Z M 52.681566,10.348166 51.740766,10.818566 50.329666,10.112966 51.270366,9.642566 Z M 52.211166,9.172266 51.270366,9.642566 49.859266,8.937066 50.800066,8.466666 Z M 40.451866,10.818566 39.511166,11.288866 40.922266,11.994466 41.862966,11.524066 Z M 42.803766,11.053766 41.862966,11.524066 43.274166,12.229666 44.214866,11.759266 Z M 42.333366,9.877766 41.392666,10.348166 42.803766,11.053766 43.744466,10.583366 Z M 44.685266,10.112966 43.744466,10.583366 45.155566,11.288866 46.096366,10.818566 Z M 45.625966,9.642566 44.685266,10.112966 43.274166,9.407466 44.214866,8.937066 Z M 47.977866,9.877766 47.037066,10.348166 45.625966,9.642566 46.566666,9.172266 Z M 47.507466,8.701866 46.566666,9.172266 45.155566,8.466666 46.096366,7.996266 Z M 49.859266,8.937066 48.918566,9.407466 47.507466,8.701866 48.448166,8.231466 Z M 49.388966,7.761166 48.448166,8.231466 47.037066,7.525966 47.977866,7.055566 Z M 37.629666,9.407466 36.688966,9.877766 38.100066,10.583366 39.040766,10.112966 Z M 39.981566,9.642566 39.040766,10.112966 40.451866,10.818566 41.392666,10.348166 Z M 39.511166,8.466666 38.570366,8.937066 39.981566,9.642566 40.922266,9.172266 Z M 41.862966,8.701866 40.922266,9.172266 42.333366,9.877766 43.274166,9.407466 Z M 42.803766,8.231466 41.862966,8.701866 40.451866,7.996266 41.392666,7.525966 Z M 45.155566,8.466666 44.214866,8.937066 42.803766,8.231466 43.744466,7.761166 Z M 44.685266,7.290766 43.744466,7.761166 42.333366,7.055566 43.274166,6.585166 Z M 47.037066,7.525966 46.096366,7.996266 44.685266,7.290766 45.625966,6.820366 Z M 46.566666,6.350066 45.625966,6.820366 44.214866,6.114866 45.155566,5.644466 Z M 34.807466,7.996266 33.866666,8.466666 35.277866,9.172266 36.218566,8.701866 Z M 37.159266,8.231466 36.218566,8.701866 37.629666,9.407466 38.570366,8.937066 Z M 36.688966,7.055566 35.748166,7.525966 37.159266,8.231466 38.100066,7.761166 Z M 39.040766,7.290766 38.100066,7.761166 39.511166,8.466666 40.451866,7.996266 Z M 39.981566,6.820366 39.040766,7.290766 37.629666,6.585166 38.570366,6.114866 Z M 42.333366,7.055566 41.392666,7.525966 39.981566,6.820366 40.922266,6.350066 Z M 41.862966,5.879666 40.922266,6.350066 39.511166,5.644466 40.451866,5.174066 Z M 44.214866,6.114866 43.274166,6.585166 41.862966,5.879666 42.803766,5.409266 Z M 43.744466,4.938866 42.803766,5.409266 41.392666,4.703766 42.333366,4.233366 Z" />
    <path
       style="fill:#008000;fill-opacity:1;stroke:none;stroke-width:0.02;stroke-linecap:butt;stroke-linejoin:miter;stroke-miterlimit:4;stroke-dasharray:none;stroke-opacity:1"
       d="M 0,33.866667 V 42.333333 L 16.933334,50.8 V 42.333333 Z"
       id="path1404"
       sodipodi:nodetypes="ccccc" />
    <path
       style="fill:#33ff33;fill-opacity:1;stroke:none;stroke-width:0.02;stroke-linecap:butt;stroke-linejoin:miter;stroke-miterlimit:4;stroke-dasharray:none;stroke-opacity:1"
       d="M 16.933334,50.8 V 42.333333 L 33.866666,33.866667 V 42.333333 Z"
       id="path1406"
       sodipodi:nodetypes="ccccc" />
    <path
       style="fill:#008000;fill-opacity:1;stroke:none;stroke-width:0.02;stroke-linecap:butt;stroke-linejoin:miter;stroke-miterlimit:4;stroke-dasharray:none;stroke-opacity:1"
       d="M 33.866666,33.866667 V 42.333333 L 50.8,50.8 V 42.333333 Z"
       id="path1408"
       sodipodi:nodetypes="ccccc" />
    <path
       style="fill:#33ff33;fill-opacity:1;stroke:none;stroke-width:0.02;stroke-linecap:butt;stroke-linejoin:miter;stroke-miterlimit:4;stroke-dasharray:none;stroke-opacity:1"
       d="M 50.8,50.8 V 42.333333 L 67.733333,33.866667 V 42.333333 Z"
       id="path1410"
       sodipodi:nodetypes="ccccc" />
    <path
       style="fill:#00b300;fill-opacity:1;stroke:none;stroke-width:0.0199716;stroke-linecap:butt;stroke-linejoin:miter;stroke-miterlimit:4;stroke-dasharray:none;stroke-opacity:1"
       d="M 67.733333,8.466667 84.666667,0 101.6,8.466667 84.666667,16.933333 Z"
       id="path14873"
       sodipodi:nodetypes="ccccc" />
    <path
       id="path1148"
       style="fill:#b6bb53;fill-opacity:1;fill-rule:evenodd;stroke-width:0.00866026"
       d="M 86.783332,1.058333 84.794083,1.809107 82.839985,2.927069 81.052846,4.402804 78.316665,5.291666 76.199999,6.35 74.083332,6.990929 71.733798,8.742844 69.849999,9.525 71.966666,10.583333 88.899999,2.116666 Z"
       sodipodi:nodetypes="cccccccccccc" />
    <path
       id="path14320"
       style="fill-rule:evenodd;stroke-width:0.00866027"
       d="M 84.666726,16.93337 71.966626,10.58335 88.899926,2.1167 101.60003,8.4667 Z" />
    <path
       id="path14322"
       style="fill:#ffffff;fill-rule:evenodd;stroke-width:0.00714165"
       d="M 85.372326,16.58056 84.493526,16.14118 88.726926,14.02448 89.605726,14.46386 Z" />
    <path
       id="path14324"
       style="fill:#ffffff;fill-rule:evenodd;stroke-width:0.0071416"
       d="M 91.016726,13.75833 90.138026,13.31895 94.371326,11.20228 95.250126,11.64166 Z" />
    <path
       id="path14326"
       style="fill:#ffffff;fill-rule:evenodd;stroke-width:0.0071416"
       d="M 96.661226,10.9361 95.782426,10.49672 100.01583,8.38 100.89463,8.8194 Z" />
    <path
       style="fill:#00b300;fill-opacity:1;stroke:none;stroke-width:0.0199716;stroke-linecap:butt;stroke-linejoin:miter;stroke-miterlimit:4;stroke-dasharray:none;stroke-opacity:1"
       d="M 135.46669,8.466703 118.53336,16.93337 101.60002,8.466703 118.53336,3.7e-5 Z"
       id="path15136"
       sodipodi:nodetypes="ccccc" />
    <path
       id="path4594"
       style="fill:#b6bb53;fill-opacity:1;fill-rule:evenodd;stroke-width:0.00866026"
       d="M 131.23333,6.35 114.3,14.816666 116.41667,15.874999 119.1546,14.541658 121.54252,13.683329 122.76667,12.7 124.88333,11.641666 127.24501,9.827061 129.36167,9.068736 131.67084,8.472916 133.35,7.408333 Z"
       sodipodi:nodetypes="cccccccccccc" />
    <path
       id="path15138"
       style="fill-rule:evenodd;stroke-width:0.00866027"
       d="M 118.5333,0 131.2334,6.35002 114.3001,14.81667 101.6,8.46667 Z" />
    <path
       id="path15140"
       style="fill:#ffffff;fill-rule:evenodd;stroke-width:0.00714165"
       d="M 117.8277,0.35281 118.7065,0.79219 114.4731,2.90889 113.5943,2.46951 Z" />
    <path
       id="path15142"
       style="fill:#ffffff;fill-rule:evenodd;stroke-width:0.0071416"
       d="M 112.1833,3.17504 113.062,3.61442 108.8287,5.73109 107.9499,5.29171 Z" />
    <path
       id="path15144"
       style="fill:#ffffff;fill-rule:evenodd;stroke-width:0.0071416"
       d="M 106.5388,5.99727 107.4176,6.43665 103.1842,8.55337 102.3054,8.11397 Z" />
    <path
       style="fill:#008000;fill-opacity:1;stroke:none;stroke-width:0.02;stroke-linecap:butt;stroke-linejoin:miter;stroke-miterlimit:4;stroke-dasharray:none;stroke-opacity:1"
       d="M 33.866666,8.466668 V 16.933334 L 50.8,25.400001 V 16.933334 Z"
       id="path6930"
       sodipodi:nodetypes="ccccc" />
    <path
       style="fill:#008000;fill-opacity:1;stroke:none;stroke-width:0.02;stroke-linecap:butt;stroke-linejoin:miter;stroke-miterlimit:4;stroke-dasharray:none;stroke-opacity:1"
       d="M 67.733333,8.466668 V 16.933334 L 84.666667,25.400001 V 16.933334 Z"
       id="path6932"
       sodipodi:nodetypes="ccccc" />
    <path
       style="fill:#008000;fill-opacity:1;stroke:none;stroke-width:0.02;stroke-linecap:butt;stroke-linejoin:miter;stroke-miterlimit:4;stroke-dasharray:none;stroke-opacity:1"
       d="M 101.6,8.466668 V 16.933334 L 118.53333,25.400001 V 16.933334 Z"
       id="path6934"
       sodipodi:nodetypes="ccccc" />
    <path
       style="fill:#00b300;fill-opacity:1;stroke:none;stroke-width:0.0199716;stroke-linecap:butt;stroke-linejoin:miter;stroke-miterlimit:4;stroke-dasharray:none;stroke-opacity:1"
       d="M 67.733333,33.866667 84.666663,25.4 101.6,33.866667 84.666663,42.333333 Z"
       id="path861"
       sodipodi:nodetypes="ccccc" />
    <path
       id="path863"
       style="fill:#c5c872;fill-opacity:0.957411;stroke:none;stroke-width:0.0099858;stroke-linecap:butt;stroke-linejoin:miter;stroke-miterlimit:4;stroke-dasharray:none;stroke-opacity:1"
       d="M 87.841663,26.9875 84.059473,29.104167 79.375003,31.220833 75.658943,33.293575 70.908333,35.454167 73.025003,36.5125 79.375003,39.6875 81.491663,40.745833 84.007273,39.755196 85.430443,38.520646 87.926933,37.312968 90.167103,36.139396 92.440353,34.762219 94.866043,33.955033 96.692803,33.062581 98.425003,32.279167 96.308333,31.220833 89.958333,28.045833 Z" />
    <path
       style="fill:#008000;fill-opacity:1;stroke:none;stroke-width:0.02;stroke-linecap:butt;stroke-linejoin:miter;stroke-miterlimit:4;stroke-dasharray:none;stroke-opacity:1"
       d="M 67.733333,33.866667 V 42.333333 L 84.666663,50.799999 V 42.333333 Z"
       id="path867"
       sodipodi:nodetypes="ccccc" />
    <path
       style="fill:#33ff33;fill-opacity:1;stroke:none;stroke-width:0.02;stroke-linecap:butt;stroke-linejoin:miter;stroke-miterlimit:4;stroke-dasharray:none;stroke-opacity:1"
       d="M 84.666663,50.799999 V 42.333333 L 101.6,33.866667 V 42.333333 Z"
       id="path869"
       sodipodi:nodetypes="ccccc" />
    <path
       id="path1251"
       style="fill:#c5c872;fill-opacity:0.957411;stroke:none;stroke-width:0.0099858;stroke-linecap:butt;stroke-linejoin:miter;stroke-miterlimit:4;stroke-dasharray:none;stroke-opacity:1"
       d="M 87.841663,40.745833 84.059473,38.629166 79.375003,36.5125 75.658943,34.439758 70.908333,32.279166 73.025003,31.220833 79.375003,28.045833 81.491663,26.9875 84.007273,27.978137 85.430443,29.212687 87.926933,30.420365 90.167103,31.593937 92.440353,32.971114 94.866043,33.7783 96.692803,34.670752 98.425003,35.454166 96.308333,36.5125 89.958333,39.6875 Z" />
    <path
       id="path1088"
       style="fill:#b7bb53;fill-opacity:0.957411;stroke:none;stroke-width:0.0099858;stroke-linecap:butt;stroke-linejoin:miter;stroke-miterlimit:4;stroke-dasharray:none;stroke-opacity:1"
       d="M 88.899993,40.216668 85.117663,38.100002 80.433323,35.983335 76.717463,33.91075 71.966663,31.750002 80.433333,27.516667 82.948773,28.507182 84.372323,29.741845 86.868783,30.949382 89.108883,32.123009 91.382213,33.500094 93.807453,34.307495 95.634533,35.19967 97.366663,35.983335 Z"
       sodipodi:nodetypes="ccccccccccccccc" />
    <path
       id="path865"
       style="fill:#b7bb53;fill-opacity:0.957411;stroke:none;stroke-width:0.0099858;stroke-linecap:butt;stroke-linejoin:miter;stroke-miterlimit:4;stroke-dasharray:none;stroke-opacity:1"
       d="M 88.899993,27.516667 85.117663,29.633333 80.433333,31.75 76.717463,33.822585 71.966663,35.983333 80.433333,40.216667 82.948773,39.226153 84.372323,37.991489 86.868783,36.783953 89.108883,35.610326 91.382213,34.233241 93.807453,33.42584 95.634533,32.533665 97.366663,31.75 Z"
       sodipodi:nodetypes="ccccccccccccccc" />
    <path
       style="fill:#00b300;fill-opacity:1;stroke:none;stroke-width:0.0199716;stroke-linecap:butt;stroke-linejoin:miter;stroke-miterlimit:4;stroke-dasharray:none;stroke-opacity:1"
       d="M 67.733338,59.266668 84.666668,50.800001 101.60001,59.266668 84.666668,67.733334 Z"
       id="path861-6"
       sodipodi:nodetypes="ccccc" />
    <path
       id="path863-3"
       style="fill:#c5c872;fill-opacity:0.957411;stroke:none;stroke-width:0.0377416;stroke-linecap:butt;stroke-linejoin:miter;stroke-miterlimit:4;stroke-dasharray:none;stroke-opacity:1"
       d="M 304.69794,209.55165 298.45314,215.41615 291.14954,219.50215 285.79648,221.52175 281.19336,224 268,230 276,234 300,246 308,250 317.50781,246.25586 320.56641,243.60156 332,250 340,246 364,234 372,230 365.45312,227.03906 359.23242,224 354.13432,222.77722 349.93616,220.21444 343.70865,218.39842 337.74726,214.76197 329.74726,210.76197 320.56641,204.39844 312.82727,206.71078 Z"
       transform="scale(0.26458333)"
       sodipodi:nodetypes="ccccccccccccccccccccccccc" />
    <path
       id="path1088-5"
       style="fill:#b7bb53;fill-opacity:0.957411;stroke:none;stroke-width:0.0377416;stroke-linecap:butt;stroke-linejoin:miter;stroke-miterlimit:4;stroke-dasharray:none;stroke-opacity:1"
       d="M 307.19233,212.59088 297.89473,220.29176 289.58984,224 272,232 304,248 313.50781,244.25586 318.88672,239.58984 319.80859,239.14258 321.70508,240 336,248 368,232 361.45312,229.03906 354.54883,225.66602 349.54297,224 345.29569,223.65586 340.12465,221.10898 334.92318,219.22755 328.67276,215.44999 321.70508,208 319.80859,208.85742 318.88672,208.41016 313.87794,209.49431 Z"
       transform="scale(0.26458333)"
       sodipodi:nodetypes="ccccccccccccccccccccccc" />
    <path
       style="fill:#00b300;fill-opacity:1;stroke:none;stroke-width:0.0199716;stroke-linecap:butt;stroke-linejoin:miter;stroke-miterlimit:4;stroke-dasharray:none;stroke-opacity:1"
       d="M 0,59.266668 16.933334,50.800001 33.866667,59.266668 16.933334,67.733334 Z"
       id="path1253"
       sodipodi:nodetypes="ccccc" />
    <path
       style="fill:#008000;fill-opacity:1;stroke:none;stroke-width:0.02;stroke-linecap:butt;stroke-linejoin:miter;stroke-miterlimit:4;stroke-dasharray:none;stroke-opacity:1"
       d="M 0,59.266668 V 67.733334 L 16.933334,76.2 V 67.733334 Z"
       id="path1257"
       sodipodi:nodetypes="ccccc" />
    <path
       style="fill:#33ff33;fill-opacity:1;stroke:none;stroke-width:0.02;stroke-linecap:butt;stroke-linejoin:miter;stroke-miterlimit:4;stroke-dasharray:none;stroke-opacity:1"
       d="M 16.933334,76.2 V 67.733334 L 33.866667,59.266668 V 67.733334 Z"
       id="path1259"
       sodipodi:nodetypes="ccccc" />
    <path
       id="path1261"
       style="fill:#c5c872;fill-opacity:0.957411;stroke:none;stroke-width:0.0099858;stroke-linecap:butt;stroke-linejoin:miter;stroke-miterlimit:4;stroke-dasharray:none;stroke-opacity:1"
       d="M 20.108332,66.145834 16.326135,64.029167 11.641666,61.912501 10.398395,59.53893 10.473323,57.755115 12.70305,56.01106 13.784296,55.435697 15.00912,54.435755 16.342782,54.138869 17.411619,53.578269 19.00362,53.468805 20.108333,52.387499 30.691666,57.679166 27.13271,59.178301 28.95947,60.070753 30.691666,60.854167 28.574999,61.912501 22.224999,65.087501 Z"
       sodipodi:nodetypes="ccccccccccccccccccc" />
    <path
       id="path1263"
       style="fill:#b7bb53;fill-opacity:0.957411;stroke:none;stroke-width:0.0099858;stroke-linecap:butt;stroke-linejoin:miter;stroke-miterlimit:4;stroke-dasharray:none;stroke-opacity:1"
       d="M 21.166666,52.916666 17.384468,55.033332 12.699999,57.149999 11.343703,59.254728 12.699999,61.383332 14.175877,62.049958 16.638777,63.391477 16.882689,63.27314 17.384468,63.499999 21.166666,65.616665 29.633332,61.383332 27.901137,60.599917 26.074377,59.707467 24.74991,59.266666 26.074377,58.825864 27.901137,57.933414 29.633332,57.149999 Z"
       sodipodi:nodetypes="cccccccccccccccccc" />
    <path
       style="fill:#00b300;fill-opacity:1;stroke:none;stroke-width:0.0199716;stroke-linecap:butt;stroke-linejoin:miter;stroke-miterlimit:4;stroke-dasharray:none;stroke-opacity:1"
       d="M 67.733333,59.266668 50.799999,50.800001 33.866666,59.266668 50.799999,67.733334 Z"
       id="path3443"
       sodipodi:nodetypes="ccccc" />
    <path
       style="fill:#008000;fill-opacity:1;stroke:none;stroke-width:0.02;stroke-linecap:butt;stroke-linejoin:miter;stroke-miterlimit:4;stroke-dasharray:none;stroke-opacity:1"
       d="M 33.866666,59.266668 V 67.733334 L 50.8,76.2 V 67.733334 Z"
       id="path3445"
       sodipodi:nodetypes="ccccc" />
    <path
       style="fill:#33ff33;fill-opacity:1;stroke:none;stroke-width:0.02;stroke-linecap:butt;stroke-linejoin:miter;stroke-miterlimit:4;stroke-dasharray:none;stroke-opacity:1"
       d="M 50.8,76.2 V 67.733334 L 67.733333,59.266668 V 67.733334 Z"
       id="path3447"
       sodipodi:nodetypes="ccccc" />
    <path
       id="path3449"
       style="fill:#c5c872;fill-opacity:0.957411;stroke:none;stroke-width:0.0099858;stroke-linecap:butt;stroke-linejoin:miter;stroke-miterlimit:4;stroke-dasharray:none;stroke-opacity:1"
       d="M 47.625001,66.145834 51.407198,64.029167 56.091667,61.912501 57.334938,59.53893 57.26001,57.755115 55.030283,56.01106 53.949037,55.435697 52.724213,54.435755 51.390551,54.138869 50.321714,53.578269 48.729713,53.468805 47.625,52.387499 37.041667,57.679166 40.600623,59.178301 38.773863,60.070753 37.041667,60.854167 39.158334,61.912501 45.508334,65.087501 Z"
       sodipodi:nodetypes="ccccccccccccccccccc" />
    <path
       id="path3451"
       style="fill:#b7bb53;fill-opacity:0.957411;stroke:none;stroke-width:0.0099858;stroke-linecap:butt;stroke-linejoin:miter;stroke-miterlimit:4;stroke-dasharray:none;stroke-opacity:1"
       d="M 46.566667,52.916666 50.348865,55.033332 55.033334,57.149999 56.38963,59.254728 55.033334,61.383332 53.557456,62.049958 51.094556,63.391477 50.850644,63.27314 50.348865,63.499999 46.566667,65.616665 38.100001,61.383332 39.832196,60.599917 41.658956,59.707467 42.983423,59.266666 41.658956,58.825864 39.832196,57.933414 38.100001,57.149999 Z"
       sodipodi:nodetypes="cccccccccccccccccc" />
    <path
       style="fill:#008000;fill-opacity:1;stroke:none;stroke-width:0.02;stroke-linecap:butt;stroke-linejoin:miter;stroke-miterlimit:4;stroke-dasharray:none;stroke-opacity:1"
       d="M 67.733334,59.266668 V 67.733334 L 84.666668,76.2 V 67.733334 Z"
       id="path3455"
       sodipodi:nodetypes="ccccc" />
    <path
       style="fill:#33ff33;fill-opacity:1;stroke:none;stroke-width:0.02;stroke-linecap:butt;stroke-linejoin:miter;stroke-miterlimit:4;stroke-dasharray:none;stroke-opacity:1"
       d="M 84.666668,76.2 V 67.733334 L 101.6,59.266668 V 67.733334 Z"
       id="path3457"
       sodipodi:nodetypes="ccccc" />
    <path
       style="fill:#00b300;fill-opacity:1;stroke:none;stroke-width:0.0199716;stroke-linecap:butt;stroke-linejoin:miter;stroke-miterlimit:4;stroke-dasharray:none;stroke-opacity:1"
       d="M 101.60001,59.266667 118.53334,67.733334 135.46668,59.266667 118.53334,50.800001 Z"
       id="path5351"
       sodipodi:nodetypes="ccccc" />
    <path
       id="path5353"
       style="fill:#c5c872;fill-opacity:0.957411;stroke:none;stroke-width:0.0099858;stroke-linecap:butt;stroke-linejoin:miter;stroke-miterlimit:4;stroke-dasharray:none;stroke-opacity:1"
       d="M 114.48466,63.089462 112.83239,61.537813 110.89998,60.456725 109.48365,59.922373 108.26574,59.266669 104.775,57.679169 106.89167,56.620836 113.24167,53.445836 115.35833,52.387503 117.87394,53.37814 118.6832,54.080423 121.70833,52.387503 123.825,53.445836 130.175,56.620836 132.29167,57.679169 130.55947,58.462584 128.91358,59.266669 127.56471,59.590196 126.45394,60.268265 124.80625,60.748754 123.22896,61.710898 121.1123,62.769231 118.6832,64.452915 116.63555,63.841108 Z"
       sodipodi:nodetypes="ccccccccccccccccccccccccc" />
    <path
       id="path5355"
       style="fill:#b7bb53;fill-opacity:0.957411;stroke:none;stroke-width:0.0099858;stroke-linecap:butt;stroke-linejoin:miter;stroke-miterlimit:4;stroke-dasharray:none;stroke-opacity:1"
       d="M 115.14464,62.285332 112.68465,60.247808 110.48731,59.266669 105.83333,57.150002 114.3,52.916669 116.81561,53.907306 118.23878,55.141857 118.48269,55.260195 118.98447,55.033336 122.76667,52.916669 131.23333,57.150002 129.50114,57.933418 127.67438,58.825868 126.34991,59.266669 125.22615,59.357723 123.85798,60.031585 122.48176,60.52938 120.828,61.528859 118.98447,63.500002 118.48269,63.273143 118.23878,63.391481 116.91354,63.104633 Z"
       sodipodi:nodetypes="ccccccccccccccccccccccc" />
    <path
       style="fill:#008000;fill-opacity:1;stroke:none;stroke-width:0.02;stroke-linecap:butt;stroke-linejoin:miter;stroke-miterlimit:4;stroke-dasharray:none;stroke-opacity:1"
       d="M 101.6,59.266668 V 67.733334 L 118.53334,76.2 V 67.733334 Z"
       id="path5357"
       sodipodi:nodetypes="ccccc" />
    <path
       style="fill:#33ff33;fill-opacity:1;stroke:none;stroke-width:0.02;stroke-linecap:butt;stroke-linejoin:miter;stroke-miterlimit:4;stroke-dasharray:none;stroke-opacity:1"
       d="M 118.53334,76.2 V 67.733334 L 135.46667,59.266668 V 67.733334 Z"
       id="path5359"
       sodipodi:nodetypes="ccccc" />
  </g>
</svg>
