<?xml version="1.0" encoding="UTF-8" standalone="no"?>
<!-- Created with Inkscape (http://www.inkscape.org/) -->

<svg
   inkscape:export-ydpi="96"
   inkscape:export-xdpi="96"
   inkscape:export-filename="/home/bc/love_projects/v11/autonomy/assets/tiles.png"
   sodipodi:docname="tiles.svg"
   inkscape:version="1.1.2 (08b2f3d93c, 2022-04-05)"
   id="svg5"
   version="1.1"
   viewBox="0 0 169.33335 101.6"
   height="384"
   width="640.00006"
   xmlns:inkscape="http://www.inkscape.org/namespaces/inkscape"
   xmlns:sodipodi="http://sodipodi.sourceforge.net/DTD/sodipodi-0.dtd"
   xmlns="http://www.w3.org/2000/svg"
   xmlns:svg="http://www.w3.org/2000/svg">
  <sodipodi:namedview
     id="namedview7"
     pagecolor="#ffffff"
     bordercolor="#666666"
     borderopacity="1.0"
     inkscape:pageshadow="2"
     inkscape:pageopacity="0.0"
     inkscape:pagecheckerboard="0"
     inkscape:document-units="px"
     showgrid="false"
     units="px"
     width="192.5px"
     showguides="false"
     inkscape:zoom="0.5397411"
     inkscape:cx="222.32881"
     inkscape:cy="339.05144"
     inkscape:window-width="1366"
     inkscape:window-height="719"
     inkscape:window-x="0"
     inkscape:window-y="0"
     inkscape:window-maximized="1"
     inkscape:current-layer="layer1"
     inkscape:lockguides="true"
     inkscape:snap-global="true"
     inkscape:snap-others="false"
     inkscape:object-nodes="true"
     inkscape:snap-nodes="true"
     inkscape:snap-bbox="false"
     inkscape:snap-midpoints="false"
     inkscape:object-paths="false">
    <inkscape:grid
       type="axonomgrid"
       id="grid826"
       gridanglex="26.568"
       gridanglez="26.57"
       units="px"
       spacingy="4.2333333"
       originx="1.5720097e-07"
       originy="0"
       visible="true"
       snapvisiblegridlinesonly="true"
       enabled="true" />
  </sodipodi:namedview>
  <defs
     id="defs2" />
  <g
     inkscape:label="Layer 1"
     inkscape:groupmode="layer"
     id="layer1">
    <path
       style="fill:#00b300;fill-opacity:1;stroke:none;stroke-width:0.0199716;stroke-linecap:butt;stroke-linejoin:miter;stroke-miterlimit:4;stroke-dasharray:none;stroke-opacity:1"
       d="M 135.46667,8.466668 152.4,9.9999999e-7 169.33333,8.466668 152.4,16.933334 Z"
       id="path15037"
       sodipodi:nodetypes="ccccc" />
    <path
       style="fill:#00b300;fill-opacity:1;stroke:none;stroke-width:0.0199716;stroke-linecap:butt;stroke-linejoin:miter;stroke-miterlimit:4;stroke-dasharray:none;stroke-opacity:1"
       d="M 101.6,8.466668 118.53333,9.9999999e-7 135.46667,8.466668 118.53333,16.933334 Z"
       id="path14955"
       sodipodi:nodetypes="ccccc" />
    <path
       style="fill:#00b300;fill-opacity:1;stroke:none;stroke-width:0.0199716;stroke-linecap:butt;stroke-linejoin:miter;stroke-miterlimit:4;stroke-dasharray:none;stroke-opacity:1"
       d="M 3.1440195e-8,8.4666667 16.933334,0 33.866666,8.4666667 16.933334,16.933333 Z"
       id="path6572"
       sodipodi:nodetypes="ccccc" />
    <path
       style="fill:#008000;fill-opacity:1;stroke:none;stroke-width:0.02;stroke-linecap:butt;stroke-linejoin:miter;stroke-miterlimit:4;stroke-dasharray:none;stroke-opacity:1"
       d="M -3.1440194e-8,8.4666667 V 16.933333 L 16.933334,25.4 V 16.933333 Z"
       id="path1020"
       sodipodi:nodetypes="ccccc" />
    <path
       style="fill:#33ff33;fill-opacity:1;stroke:none;stroke-width:0.02;stroke-linecap:butt;stroke-linejoin:miter;stroke-miterlimit:4;stroke-dasharray:none;stroke-opacity:1"
       d="M 16.933334,25.4 V 16.933333 L 33.866666,8.4666667 V 16.933333 Z"
       id="path1052"
       sodipodi:nodetypes="ccccc" />
    <path
       id="path2858"
       style="fill:#c5c872;fill-opacity:0.957411;stroke:none;stroke-width:0.0099858;stroke-linecap:butt;stroke-linejoin:miter;stroke-miterlimit:4;stroke-dasharray:none;stroke-opacity:1"
       d="M 121.70833,1.587501 117.92613,3.704168 113.24167,5.820834 109.52561,7.893576 104.775,10.054168 106.89167,11.112501 113.24167,14.287501 115.35833,15.345834 117.87394,14.355197 119.29711,13.120647 121.7936,11.912969 124.03377,10.739397 126.30702,9.36222 128.73271,8.555034 130.55947,7.662582 132.29167,6.879168 130.175,5.820834 123.825,2.645834 Z" />
    <path
       style="fill:#33ff33;fill-opacity:1;stroke:none;stroke-width:0.02;stroke-linecap:butt;stroke-linejoin:miter;stroke-miterlimit:4;stroke-dasharray:none;stroke-opacity:1"
       d="M 50.8,25.4 V 16.933334 L 67.733333,8.466666 V 16.933334 Z"
       id="path3777"
       sodipodi:nodetypes="ccccc" />
    <path
       style="fill:#33ff33;fill-opacity:1;stroke:none;stroke-width:0.02;stroke-linecap:butt;stroke-linejoin:miter;stroke-miterlimit:4;stroke-dasharray:none;stroke-opacity:1"
       d="M 84.666663,25.4 V 16.933334 L 101.6,8.466666 V 16.933334 Z"
       id="path3783"
       sodipodi:nodetypes="ccccc" />
    <path
       id="path840"
       style="fill:#b7bb53;fill-opacity:0.957411;stroke:none;stroke-width:0.0099858;stroke-linecap:butt;stroke-linejoin:miter;stroke-miterlimit:4;stroke-dasharray:none;stroke-opacity:1"
       d="M 122.76666,2.116668 118.98433,4.233334 114.3,6.350001 110.58413,8.422586 105.83333,10.583334 114.3,14.816668 116.81544,13.826154 118.23899,12.59149 120.73545,11.383954 122.97555,10.210327 125.24888,8.833242 127.67412,8.025841 129.5012,7.133666 131.23333,6.350001 Z"
       sodipodi:nodetypes="ccccccccccccccc" />
    <path
       id="path3213"
       style="fill:#bdc86d;fill-opacity:1;stroke:none;stroke-width:0.0099858;stroke-linecap:butt;stroke-linejoin:miter;stroke-miterlimit:4;stroke-dasharray:none;stroke-opacity:1"
       d="M 149.225,1.587501 147.10833,2.645834 140.75833,5.820834 138.64166,6.879168 140.75833,7.937501 143.11839,8.673373 144.99166,10.054168 147.10833,11.112501 148.74699,12.151714 151.34166,13.744898 153.45833,14.287501 155.575,15.345834 157.69166,14.287501 164.04166,11.112501 166.15833,10.054168 164.04166,8.995834 162.51153,7.808827 160.10134,6.825941 157.69166,6.130376 155.575,4.762501 153.01598,3.852479 151.34166,2.645834 Z" />
    <path
       id="path1597"
       style="fill:#b7bb53;fill-opacity:0.957411;stroke:none;stroke-width:0.0099858;stroke-linecap:butt;stroke-linejoin:miter;stroke-miterlimit:4;stroke-dasharray:none;stroke-opacity:1"
       d="M 148.16666,2.116668 150.28333,3.175001 151.95787,4.38157 154.51666,5.291668 156.63333,6.659361 159.04324,7.354916 161.45316,8.337766 162.98333,9.525001 165.1,10.583334 156.63333,14.816668 154.51666,13.758335 152.39999,13.215601 149.80511,11.622333 148.16666,10.583334 146.05,9.525001 144.17695,8.144417 141.81666,7.408334 139.7,6.350001 Z"
       sodipodi:nodetypes="ccccccccccccccccccc" />
    <path
       style="fill:#008000;fill-opacity:1;stroke:none;stroke-width:0.02;stroke-linecap:butt;stroke-linejoin:miter;stroke-miterlimit:4;stroke-dasharray:none;stroke-opacity:1"
       d="M 101.6,8.466668 V 16.933334 L 118.53333,25.400001 V 16.933334 Z"
       id="path1404"
       sodipodi:nodetypes="ccccc" />
    <path
       style="fill:#33ff33;fill-opacity:1;stroke:none;stroke-width:0.02;stroke-linecap:butt;stroke-linejoin:miter;stroke-miterlimit:4;stroke-dasharray:none;stroke-opacity:1"
       d="M 118.53333,25.400001 V 16.933334 L 135.46667,8.466668 V 16.933334 Z"
       id="path1406"
       sodipodi:nodetypes="ccccc" />
    <path
       style="fill:#008000;fill-opacity:1;stroke:none;stroke-width:0.02;stroke-linecap:butt;stroke-linejoin:miter;stroke-miterlimit:4;stroke-dasharray:none;stroke-opacity:1"
       d="M 135.46667,8.466668 V 16.933334 L 152.4,25.400001 V 16.933334 Z"
       id="path1408"
       sodipodi:nodetypes="ccccc" />
    <path
       style="fill:#33ff33;fill-opacity:1;stroke:none;stroke-width:0.02;stroke-linecap:butt;stroke-linejoin:miter;stroke-miterlimit:4;stroke-dasharray:none;stroke-opacity:1"
       d="M 152.4,25.400001 V 16.933334 L 169.33333,8.466668 V 16.933334 Z"
       id="path1410"
       sodipodi:nodetypes="ccccc" />
    <path
       style="fill:#00b300;fill-opacity:1;stroke:none;stroke-width:0.0199716;stroke-linecap:butt;stroke-linejoin:miter;stroke-miterlimit:4;stroke-dasharray:none;stroke-opacity:1"
       d="M 33.866666,8.466667 50.8,0 67.733333,8.466667 50.8,16.933333 Z"
       id="path14873"
       sodipodi:nodetypes="ccccc" />
    <path
       id="path1148"
       style="fill:#b6bb53;fill-opacity:1;fill-rule:evenodd;stroke-width:0.00866026"
       d="M 52.916665,1.058333 50.927416,1.809107 48.973318,2.927069 47.186179,4.402804 44.449998,5.291666 42.333332,6.35 40.216665,6.990929 37.867131,8.742844 35.983332,9.525 38.099999,10.583333 55.033332,2.116666 Z"
       sodipodi:nodetypes="cccccccccccc" />
    <path
       id="path14320"
       style="fill-rule:evenodd;stroke-width:0.00866027"
       d="M 50.800059,16.93337 38.099959,10.58335 55.033259,2.1167 67.733363,8.4667 Z" />
    <path
       id="path14322"
       style="fill:#ffffff;fill-rule:evenodd;stroke-width:0.00714165"
       d="M 51.505659,16.58056 50.626859,16.14118 54.860259,14.02448 55.739059,14.46386 Z" />
    <path
       id="path14324"
       style="fill:#ffffff;fill-rule:evenodd;stroke-width:0.0071416"
       d="M 57.150059,13.75833 56.271359,13.31895 60.504659,11.20228 61.383459,11.64166 Z" />
    <path
       id="path14326"
       style="fill:#ffffff;fill-rule:evenodd;stroke-width:0.0071416"
       d="M 62.794559,10.9361 61.915759,10.49672 66.149163,8.38 67.027963,8.8194 Z" />
    <path
       style="fill:#00b300;fill-opacity:1;stroke:none;stroke-width:0.0199716;stroke-linecap:butt;stroke-linejoin:miter;stroke-miterlimit:4;stroke-dasharray:none;stroke-opacity:1"
       d="M 101.60002,8.466703 84.666693,16.93337 67.733353,8.466703 84.666693,3.7e-5 Z"
       id="path15136"
       sodipodi:nodetypes="ccccc" />
    <path
       id="path4594"
       style="fill:#b6bb53;fill-opacity:1;fill-rule:evenodd;stroke-width:0.00866026"
       d="M 97.366663,6.35 80.433333,14.816666 82.550003,15.874999 85.287933,14.541658 87.675853,13.683329 88.900003,12.7 91.016663,11.641666 93.378343,9.827061 95.495003,9.068736 97.804173,8.472916 99.483333,7.408333 Z"
       sodipodi:nodetypes="cccccccccccc" />
    <path
       id="path15138"
       style="fill-rule:evenodd;stroke-width:0.00866027"
       d="M 84.666633,0 97.366733,6.35002 80.433433,14.81667 67.733333,8.46667 Z" />
    <path
       id="path15140"
       style="fill:#ffffff;fill-rule:evenodd;stroke-width:0.00714165"
       d="M 83.961033,0.35281 84.839833,0.79219 80.606433,2.90889 79.727633,2.46951 Z" />
    <path
       id="path15142"
       style="fill:#ffffff;fill-rule:evenodd;stroke-width:0.0071416"
       d="M 78.316633,3.17504 79.195333,3.61442 74.962033,5.73109 74.083233,5.29171 Z" />
    <path
       id="path15144"
       style="fill:#ffffff;fill-rule:evenodd;stroke-width:0.0071416"
       d="M 72.672133,5.99727 73.550933,6.43665 69.317533,8.55337 68.438733,8.11397 Z" />
    <path
       style="fill:#008000;fill-opacity:1;stroke:none;stroke-width:0.02;stroke-linecap:butt;stroke-linejoin:miter;stroke-miterlimit:4;stroke-dasharray:none;stroke-opacity:1"
       d="M 33.866666,8.466668 V 16.933334 L 50.8,25.400001 V 16.933334 Z"
       id="path6932"
       sodipodi:nodetypes="ccccc" />
    <path
       style="fill:#008000;fill-opacity:1;stroke:none;stroke-width:0.02;stroke-linecap:butt;stroke-linejoin:miter;stroke-miterlimit:4;stroke-dasharray:none;stroke-opacity:1"
       d="M 67.733333,8.466668 V 16.933334 L 84.666663,25.400001 V 16.933334 Z"
       id="path6934"
       sodipodi:nodetypes="ccccc" />
    <path
       style="fill:#00b300;fill-opacity:1;stroke:none;stroke-width:0.0199716;stroke-linecap:butt;stroke-linejoin:miter;stroke-miterlimit:4;stroke-dasharray:none;stroke-opacity:1"
       d="M 135.46668,33.866666 152.40001,25.399999 169.33335,33.866666 152.40001,42.333332 Z"
       id="path861"
       sodipodi:nodetypes="ccccc" />
    <path
       id="path863"
       style="fill:#c5c872;fill-opacity:0.957411;stroke:none;stroke-width:0.0099858;stroke-linecap:butt;stroke-linejoin:miter;stroke-miterlimit:4;stroke-dasharray:none;stroke-opacity:1"
       d="M 155.57501,26.987499 151.79282,29.104166 147.10835,31.220832 143.39229,33.293574 138.64168,35.454166 140.75835,36.512499 147.10835,39.687499 149.22501,40.745832 151.74062,39.755195 153.16379,38.520645 155.66028,37.312967 157.90045,36.139395 160.1737,34.762218 162.59939,33.955032 164.42615,33.06258 166.15835,32.279166 164.04168,31.220832 157.69168,28.045832 Z" />
    <path
       style="fill:#008000;fill-opacity:1;stroke:none;stroke-width:0.02;stroke-linecap:butt;stroke-linejoin:miter;stroke-miterlimit:4;stroke-dasharray:none;stroke-opacity:1"
       d="M 135.46668,33.866666 V 42.333332 L 152.40001,50.799998 V 42.333332 Z"
       id="path867"
       sodipodi:nodetypes="ccccc" />
    <path
       style="fill:#33ff33;fill-opacity:1;stroke:none;stroke-width:0.02;stroke-linecap:butt;stroke-linejoin:miter;stroke-miterlimit:4;stroke-dasharray:none;stroke-opacity:1"
       d="M 152.40001,50.799998 V 42.333332 L 169.33335,33.866666 V 42.333332 Z"
       id="path869"
       sodipodi:nodetypes="ccccc" />
    <path
       id="path1251"
       style="fill:#c5c872;fill-opacity:0.957411;stroke:none;stroke-width:0.0099858;stroke-linecap:butt;stroke-linejoin:miter;stroke-miterlimit:4;stroke-dasharray:none;stroke-opacity:1"
       d="M 155.57501,40.745832 151.79282,38.629165 147.10835,36.512499 143.39229,34.439757 138.64168,32.279165 140.75835,31.220832 147.10835,28.045832 149.22501,26.987499 151.74062,27.978136 153.16379,29.212686 155.66028,30.420364 157.90045,31.593936 160.1737,32.971113 162.59939,33.778299 164.42615,34.670751 166.15835,35.454165 164.04168,36.512499 157.69168,39.687499 Z" />
    <path
       id="path1088"
       style="fill:#b7bb53;fill-opacity:0.957411;stroke:none;stroke-width:0.0099858;stroke-linecap:butt;stroke-linejoin:miter;stroke-miterlimit:4;stroke-dasharray:none;stroke-opacity:1"
       d="M 156.63334,40.216667 152.85101,38.100001 148.16667,35.983334 144.45081,33.910749 139.70001,31.750001 148.16668,27.516666 150.68212,28.507181 152.10567,29.741844 154.60213,30.949381 156.84223,32.123008 159.11556,33.500093 161.5408,34.307494 163.36788,35.199669 165.10001,35.983334 Z"
       sodipodi:nodetypes="ccccccccccccccc" />
    <path
       id="path865"
       style="fill:#b7bb53;fill-opacity:0.957411;stroke:none;stroke-width:0.0099858;stroke-linecap:butt;stroke-linejoin:miter;stroke-miterlimit:4;stroke-dasharray:none;stroke-opacity:1"
       d="M 156.63334,27.516666 152.85101,29.633332 148.16668,31.749999 144.45081,33.822584 139.70001,35.983332 148.16668,40.216666 150.68212,39.226152 152.10567,37.991488 154.60213,36.783952 156.84223,35.610325 159.11556,34.23324 161.5408,33.425839 163.36788,32.533664 165.10001,31.749999 Z"
       sodipodi:nodetypes="ccccccccccccccc" />
    <path
       style="fill:#00b300;fill-opacity:1;stroke:none;stroke-width:0.0199716;stroke-linecap:butt;stroke-linejoin:miter;stroke-miterlimit:4;stroke-dasharray:none;stroke-opacity:1"
       d="M 67.733338,33.866667 84.666668,25.4 101.60001,33.866667 84.666668,42.333333 Z"
       id="path861-6"
       sodipodi:nodetypes="ccccc" />
    <path
       id="path863-3"
       style="fill:#c5c872;fill-opacity:0.957411;stroke:none;stroke-width:0.0099858;stroke-linecap:butt;stroke-linejoin:miter;stroke-miterlimit:4;stroke-dasharray:none;stroke-opacity:1"
       d="M 80.617996,30.043872 78.965726,31.595521 77.033315,32.676609 75.616984,33.210961 74.399076,33.866665 70.908332,35.454165 73.024999,36.512498 79.374999,39.687498 81.491666,40.745831 84.007274,39.755194 84.816528,39.052911 87.841666,40.745831 89.958332,39.687498 96.308332,36.512498 98.424999,35.454165 96.692803,34.67075 95.04691,33.866665 93.698038,33.543138 92.587275,32.865069 90.939579,32.38458 89.362295,31.422436 87.245628,30.364103 84.816528,28.680419 82.768881,29.292226 Z"
       sodipodi:nodetypes="ccccccccccccccccccccccccc" />
    <path
       id="path1088-5"
       style="fill:#b7bb53;fill-opacity:0.957411;stroke:none;stroke-width:0.0099858;stroke-linecap:butt;stroke-linejoin:miter;stroke-miterlimit:4;stroke-dasharray:none;stroke-opacity:1"
       d="M 81.27797,30.848002 78.81798,32.885526 76.620644,33.866665 71.966666,35.983332 80.433332,40.216665 82.94894,39.226028 84.37211,37.991477 84.616022,37.873139 85.117801,38.099998 88.899999,40.216665 97.366665,35.983332 95.63447,35.199916 93.80771,34.307466 92.483243,33.866665 91.359483,33.775611 89.991313,33.101749 88.61509,32.603954 86.961333,31.604475 85.117801,29.633332 84.616022,29.860191 84.37211,29.741853 83.046871,30.028701 Z"
       sodipodi:nodetypes="ccccccccccccccccccccccc" />
    <path
       style="fill:#00b300;fill-opacity:1;stroke:none;stroke-width:0.0199716;stroke-linecap:butt;stroke-linejoin:miter;stroke-miterlimit:4;stroke-dasharray:none;stroke-opacity:1"
       d="M 0,33.866667 16.933334,25.4 33.866667,33.866667 16.933334,42.333333 Z"
       id="path1253"
       sodipodi:nodetypes="ccccc" />
    <path
       style="fill:#008000;fill-opacity:1;stroke:none;stroke-width:0.02;stroke-linecap:butt;stroke-linejoin:miter;stroke-miterlimit:4;stroke-dasharray:none;stroke-opacity:1"
       d="M 0,33.866667 V 42.333333 L 16.933334,50.799999 V 42.333333 Z"
       id="path1257"
       sodipodi:nodetypes="ccccc" />
    <path
       style="fill:#33ff33;fill-opacity:1;stroke:none;stroke-width:0.02;stroke-linecap:butt;stroke-linejoin:miter;stroke-miterlimit:4;stroke-dasharray:none;stroke-opacity:1"
       d="M 16.933334,50.799999 V 42.333333 L 33.866667,33.866667 V 42.333333 Z"
       id="path1259"
       sodipodi:nodetypes="ccccc" />
    <path
       id="path1261"
       style="fill:#c5c872;fill-opacity:0.957411;stroke:none;stroke-width:0.0099858;stroke-linecap:butt;stroke-linejoin:miter;stroke-miterlimit:4;stroke-dasharray:none;stroke-opacity:1"
       d="M 20.108332,40.745833 16.326135,38.629166 11.641666,36.5125 10.398395,34.138929 10.473323,32.355114 12.70305,30.611059 13.784296,30.035696 15.00912,29.035754 16.342782,28.738868 17.411619,28.178268 19.00362,28.068804 20.108333,26.987498 30.691666,32.279165 27.13271,33.7783 28.95947,34.670752 30.691666,35.454166 28.574999,36.5125 22.224999,39.6875 Z"
       sodipodi:nodetypes="ccccccccccccccccccc" />
    <path
       id="path1263"
       style="fill:#b7bb53;fill-opacity:0.957411;stroke:none;stroke-width:0.0099858;stroke-linecap:butt;stroke-linejoin:miter;stroke-miterlimit:4;stroke-dasharray:none;stroke-opacity:1"
       d="M 21.166666,27.516665 17.384468,29.633331 12.699999,31.749998 11.343703,33.854727 12.699999,35.983331 14.175877,36.649957 16.638777,37.991476 16.882689,37.873139 17.384468,38.099998 21.166666,40.216664 29.633332,35.983331 27.901137,35.199916 26.074377,34.307466 24.74991,33.866665 26.074377,33.425863 27.901137,32.533413 29.633332,31.749998 Z"
       sodipodi:nodetypes="cccccccccccccccccc" />
    <path
       style="fill:#00b300;fill-opacity:1;stroke:none;stroke-width:0.0199716;stroke-linecap:butt;stroke-linejoin:miter;stroke-miterlimit:4;stroke-dasharray:none;stroke-opacity:1"
       d="M 67.733333,33.866667 50.799999,25.4 33.866666,33.866667 50.799999,42.333333 Z"
       id="path3443"
       sodipodi:nodetypes="ccccc" />
    <path
       style="fill:#008000;fill-opacity:1;stroke:none;stroke-width:0.02;stroke-linecap:butt;stroke-linejoin:miter;stroke-miterlimit:4;stroke-dasharray:none;stroke-opacity:1"
       d="M 33.866666,33.866667 V 42.333333 L 50.8,50.799999 V 42.333333 Z"
       id="path3445"
       sodipodi:nodetypes="ccccc" />
    <path
       style="fill:#33ff33;fill-opacity:1;stroke:none;stroke-width:0.02;stroke-linecap:butt;stroke-linejoin:miter;stroke-miterlimit:4;stroke-dasharray:none;stroke-opacity:1"
       d="M 50.8,50.799999 V 42.333333 L 67.733333,33.866667 V 42.333333 Z"
       id="path3447"
       sodipodi:nodetypes="ccccc" />
    <path
       id="path3449"
       style="fill:#c5c872;fill-opacity:0.957411;stroke:none;stroke-width:0.0099858;stroke-linecap:butt;stroke-linejoin:miter;stroke-miterlimit:4;stroke-dasharray:none;stroke-opacity:1"
       d="M 47.625001,40.745833 51.407198,38.629166 56.091667,36.5125 57.334938,34.138929 57.26001,32.355114 55.030283,30.611059 53.949037,30.035696 52.724213,29.035754 51.390551,28.738868 50.321714,28.178268 48.729713,28.068804 47.625,26.987498 37.041667,32.279165 40.600623,33.7783 38.773863,34.670752 37.041667,35.454166 39.158334,36.5125 45.508334,39.6875 Z"
       sodipodi:nodetypes="ccccccccccccccccccc" />
    <path
       id="path3451"
       style="fill:#b7bb53;fill-opacity:0.957411;stroke:none;stroke-width:0.0099858;stroke-linecap:butt;stroke-linejoin:miter;stroke-miterlimit:4;stroke-dasharray:none;stroke-opacity:1"
       d="M 46.566667,27.516665 50.348865,29.633331 55.033334,31.749998 56.38963,33.854727 55.033334,35.983331 53.557456,36.649957 51.094556,37.991476 50.850644,37.873139 50.348865,38.099998 46.566667,40.216664 38.100001,35.983331 39.832196,35.199916 41.658956,34.307466 42.983423,33.866665 41.658956,33.425863 39.832196,32.533413 38.100001,31.749998 Z"
       sodipodi:nodetypes="cccccccccccccccccc" />
    <path
       style="fill:#008000;fill-opacity:1;stroke:none;stroke-width:0.02;stroke-linecap:butt;stroke-linejoin:miter;stroke-miterlimit:4;stroke-dasharray:none;stroke-opacity:1"
       d="M 67.733334,33.866667 V 42.333333 L 84.666668,50.799999 V 42.333333 Z"
       id="path3455"
       sodipodi:nodetypes="ccccc" />
    <path
       style="fill:#33ff33;fill-opacity:1;stroke:none;stroke-width:0.02;stroke-linecap:butt;stroke-linejoin:miter;stroke-miterlimit:4;stroke-dasharray:none;stroke-opacity:1"
       d="M 84.666668,50.799999 V 42.333333 L 101.6,33.866667 V 42.333333 Z"
       id="path3457"
       sodipodi:nodetypes="ccccc" />
    <path
       style="fill:#00b300;fill-opacity:1;stroke:none;stroke-width:0.0199716;stroke-linecap:butt;stroke-linejoin:miter;stroke-miterlimit:4;stroke-dasharray:none;stroke-opacity:1"
       d="M 101.60001,33.866666 118.53334,42.333333 135.46668,33.866666 118.53334,25.4 Z"
       id="path5351"
       sodipodi:nodetypes="ccccc" />
    <path
       id="path5353"
       style="fill:#c5c872;fill-opacity:0.957411;stroke:none;stroke-width:0.0099858;stroke-linecap:butt;stroke-linejoin:miter;stroke-miterlimit:4;stroke-dasharray:none;stroke-opacity:1"
       d="M 114.48466,37.689461 112.83239,36.137812 110.89998,35.056724 109.48365,34.522372 108.26574,33.866668 104.775,32.279168 106.89167,31.220835 113.24167,28.045835 115.35833,26.987502 117.87394,27.978139 118.6832,28.680422 121.70833,26.987502 123.825,28.045835 130.175,31.220835 132.29167,32.279168 130.55947,33.062583 128.91358,33.866668 127.56471,34.190195 126.45394,34.868264 124.80625,35.348753 123.22896,36.310897 121.1123,37.36923 118.6832,39.052914 116.63555,38.441107 Z"
       sodipodi:nodetypes="ccccccccccccccccccccccccc" />
    <path
       id="path5355"
       style="fill:#b7bb53;fill-opacity:0.957411;stroke:none;stroke-width:0.0099858;stroke-linecap:butt;stroke-linejoin:miter;stroke-miterlimit:4;stroke-dasharray:none;stroke-opacity:1"
       d="M 115.14464,36.885331 112.68465,34.847807 110.48731,33.866668 105.83333,31.750001 114.3,27.516668 116.81561,28.507305 118.23878,29.741856 118.48269,29.860194 118.98447,29.633335 122.76667,27.516668 131.23333,31.750001 129.50114,32.533417 127.67438,33.425867 126.34991,33.866668 125.22615,33.957722 123.85798,34.631584 122.48176,35.129379 120.828,36.128858 118.98447,38.100001 118.48269,37.873142 118.23878,37.99148 116.91354,37.704632 Z"
       sodipodi:nodetypes="ccccccccccccccccccccccc" />
    <path
       style="fill:#008000;fill-opacity:1;stroke:none;stroke-width:0.02;stroke-linecap:butt;stroke-linejoin:miter;stroke-miterlimit:4;stroke-dasharray:none;stroke-opacity:1"
       d="M 101.6,33.866667 V 42.333333 L 118.53334,50.799999 V 42.333333 Z"
       id="path5357"
       sodipodi:nodetypes="ccccc" />
    <path
       style="fill:#33ff33;fill-opacity:1;stroke:none;stroke-width:0.02;stroke-linecap:butt;stroke-linejoin:miter;stroke-miterlimit:4;stroke-dasharray:none;stroke-opacity:1"
       d="M 118.53334,50.799999 V 42.333333 L 135.46667,33.866667 V 42.333333 Z"
       id="path5359"
       sodipodi:nodetypes="ccccc" />
    <path
       style="fill:#00b300;fill-opacity:1;stroke:none;stroke-width:0.0199716;stroke-linecap:butt;stroke-linejoin:miter;stroke-miterlimit:4;stroke-dasharray:none;stroke-opacity:1"
       d="M 0,59.266666 16.933334,50.799999 33.866667,59.266666 16.933334,67.733332 Z"
       id="path962"
       sodipodi:nodetypes="ccccc" />
    <path
       style="fill:#008000;fill-opacity:1;stroke:none;stroke-width:0.02;stroke-linecap:butt;stroke-linejoin:miter;stroke-miterlimit:4;stroke-dasharray:none;stroke-opacity:1"
       d="M 0,59.266666 V 67.733332 L 16.933334,76.199998 V 67.733332 Z"
       id="path964"
       sodipodi:nodetypes="ccccc" />
    <path
       style="fill:#33ff33;fill-opacity:1;stroke:none;stroke-width:0.02;stroke-linecap:butt;stroke-linejoin:miter;stroke-miterlimit:4;stroke-dasharray:none;stroke-opacity:1"
       d="M 16.933334,76.199998 V 67.733332 L 33.866667,59.266666 V 67.733332 Z"
       id="path966"
       sodipodi:nodetypes="ccccc" />
    <path
       id="path968"
       style="fill:#c5c872;fill-opacity:0.957411;stroke:none;stroke-width:0.0377416;stroke-linecap:butt;stroke-linejoin:miter;stroke-miterlimit:4;stroke-dasharray:none;stroke-opacity:1"
       d="M 76,198 71.824219,202.08594 65.808594,202.5 61.767578,204.61914 56.726562,205.74219 54.576172,207.49805 48.697266,209.55078 42.453125,215.41602 35.150391,219.50195 29.796875,221.52148 25.193359,224 12,230 20,234 44,246 52,250 61.507812,246.25586 64.566406,243.60156 76,250 84,246 108,234 116,230 109.45312,227.03906 103.23242,224 102.54883,223.66602 116,218 Z"
       transform="scale(0.26458333)" />
    <path
       id="path970"
       style="fill:#b7bb53;fill-opacity:0.957411;stroke:none;stroke-width:0.0377416;stroke-linecap:butt;stroke-linejoin:miter;stroke-miterlimit:4;stroke-dasharray:none;stroke-opacity:1"
       d="M 80,200 65.705078,208 63.808594,208.85742 62.886719,208.41016 57.878906,209.49414 51.191406,212.5918 41.894531,220.29102 33.589844,224 16,232 48,248 57.507812,244.25586 62.886719,239.58984 63.808594,239.14258 65.705078,240 80,248 112,232 105.45312,229.03906 98.548828,225.66602 93.542969,224 98.548828,222.33398 105.45312,218.96094 112,216 Z"
       transform="scale(0.26458333)" />
    <path
       style="fill:#00b300;fill-opacity:1;stroke:none;stroke-width:0.0199716;stroke-linecap:butt;stroke-linejoin:miter;stroke-miterlimit:4;stroke-dasharray:none;stroke-opacity:1"
       d="M 67.733333,59.266666 50.799999,50.799999 33.866666,59.266666 50.799999,67.733332 Z"
       id="path1347"
       sodipodi:nodetypes="ccccc" />
    <path
       style="fill:#008000;fill-opacity:1;stroke:none;stroke-width:0.02;stroke-linecap:butt;stroke-linejoin:miter;stroke-miterlimit:4;stroke-dasharray:none;stroke-opacity:1"
       d="M 33.866666,59.266666 V 67.733332 L 50.8,76.199998 V 67.733332 Z"
       id="path1349"
       sodipodi:nodetypes="ccccc" />
    <path
       style="fill:#33ff33;fill-opacity:1;stroke:none;stroke-width:0.02;stroke-linecap:butt;stroke-linejoin:miter;stroke-miterlimit:4;stroke-dasharray:none;stroke-opacity:1"
       d="M 50.8,76.199998 V 67.733332 L 67.733333,59.266666 V 67.733332 Z"
       id="path1351"
       sodipodi:nodetypes="ccccc" />
    <path
       id="path1353"
       style="fill:#c5c872;fill-opacity:0.957411;stroke:none;stroke-width:0.0099858;stroke-linecap:butt;stroke-linejoin:miter;stroke-miterlimit:4;stroke-dasharray:none;stroke-opacity:1"
       d="M 47.625,52.387499 48.729842,53.468571 50.321476,53.578124 51.390662,54.138813 52.72443,54.435954 53.293388,54.900525 54.848848,55.443643 56.500944,56.995488 58.433125,58.076557 59.849577,58.610891 61.06759,59.266666 64.558333,60.854166 62.441666,61.912499 56.091666,65.087499 53.975,66.145832 51.459391,65.155195 50.650138,64.452912 47.625,66.145832 45.508333,65.087499 39.158333,61.912499 37.041667,60.854166 38.773862,60.070751 40.419756,59.266666 40.600622,59.1783 37.041667,57.679166 Z" />
    <path
       id="path1355"
       style="fill:#b7bb53;fill-opacity:0.957411;stroke:none;stroke-width:0.0099858;stroke-linecap:butt;stroke-linejoin:miter;stroke-miterlimit:4;stroke-dasharray:none;stroke-opacity:1"
       d="M 46.566667,52.916666 50.348865,55.033333 50.850643,55.260192 51.094555,55.141854 52.419539,55.428657 54.18894,56.248246 56.648738,58.285332 58.84602,59.266666 63.5,61.383333 55.033333,65.616666 52.517725,64.626029 51.094555,63.391478 50.850643,63.27314 50.348865,63.499999 46.566667,65.616666 38.1,61.383333 39.832195,60.599917 41.658956,59.707467 42.983423,59.266666 41.658956,58.825865 39.832195,57.933415 38.1,57.149999 Z" />
    <path
       style="fill:#00b300;fill-opacity:1;stroke:none;stroke-width:0.0199716;stroke-linecap:butt;stroke-linejoin:miter;stroke-miterlimit:4;stroke-dasharray:none;stroke-opacity:1"
       d="M 101.6,59.266665 84.666666,67.733332 67.733334,59.266665 84.666666,50.799999 Z"
       id="path1428"
       sodipodi:nodetypes="ccccc" />
    <path
       style="fill:#008000;fill-opacity:1;stroke:none;stroke-width:0.02;stroke-linecap:butt;stroke-linejoin:miter;stroke-miterlimit:4;stroke-dasharray:none;stroke-opacity:1"
       d="M 67.733334,59.266666 V 67.733332 L 84.666668,76.199998 V 67.733332 Z"
       id="path1430"
       sodipodi:nodetypes="ccccc" />
    <path
       style="fill:#33ff33;fill-opacity:1;stroke:none;stroke-width:0.02;stroke-linecap:butt;stroke-linejoin:miter;stroke-miterlimit:4;stroke-dasharray:none;stroke-opacity:1"
       d="M 84.666668,76.199998 V 67.733332 L 101.6,59.266666 V 67.733332 Z"
       id="path1432"
       sodipodi:nodetypes="ccccc" />
    <path
       id="path1434"
       style="fill:#c5c872;fill-opacity:0.957411;stroke:none;stroke-width:0.0099858;stroke-linecap:butt;stroke-linejoin:miter;stroke-miterlimit:4;stroke-dasharray:none;stroke-opacity:1"
       d="M 81.491667,66.145832 82.596509,65.06476 84.188143,64.955207 85.257329,64.394518 86.591097,64.097377 87.160055,63.632806 88.715515,63.089688 90.367611,61.537843 92.299792,60.456774 93.716244,59.92244 94.934257,59.266665 98.425,57.679165 96.308333,56.620832 89.958333,53.445832 87.841667,52.387499 85.326058,53.378136 84.516805,54.080419 81.491667,52.387499 79.375,53.445832 73.025,56.620832 70.908334,57.679165 72.640529,58.46258 74.286423,59.266665 74.467289,59.355031 70.908334,60.854165 Z" />
    <path
       id="path1436"
       style="fill:#b7bb53;fill-opacity:0.957411;stroke:none;stroke-width:0.0099858;stroke-linecap:butt;stroke-linejoin:miter;stroke-miterlimit:4;stroke-dasharray:none;stroke-opacity:1"
       d="M 80.433334,65.616665 84.215532,63.499998 84.71731,63.273139 84.961222,63.391477 86.286206,63.104674 88.055607,62.285085 90.515405,60.247999 92.712687,59.266665 97.366667,57.149998 88.9,52.916665 86.384392,53.907302 84.961222,55.141853 84.71731,55.260191 84.215532,55.033332 80.433334,52.916665 71.966667,57.149998 73.698862,57.933414 75.525623,58.825864 76.85009,59.266665 75.525623,59.707466 73.698862,60.599916 71.966667,61.383332 Z" />
    <path
       style="fill:#00b300;fill-opacity:1;stroke:none;stroke-width:0.0199716;stroke-linecap:butt;stroke-linejoin:miter;stroke-miterlimit:4;stroke-dasharray:none;stroke-opacity:1"
       d="M 135.46667,59.266666 118.53333,50.799999 101.6,59.266666 118.53333,67.733332 Z"
       id="path1438"
       sodipodi:nodetypes="ccccc" />
    <path
       style="fill:#008000;fill-opacity:1;stroke:none;stroke-width:0.02;stroke-linecap:butt;stroke-linejoin:miter;stroke-miterlimit:4;stroke-dasharray:none;stroke-opacity:1"
       d="M 101.6,59.266666 V 67.733332 L 118.53333,76.199998 V 67.733332 Z"
       id="path1440"
       sodipodi:nodetypes="ccccc" />
    <path
       style="fill:#33ff33;fill-opacity:1;stroke:none;stroke-width:0.02;stroke-linecap:butt;stroke-linejoin:miter;stroke-miterlimit:4;stroke-dasharray:none;stroke-opacity:1"
       d="M 118.53333,76.199998 V 67.733332 L 135.46667,59.266666 V 67.733332 Z"
       id="path1442"
       sodipodi:nodetypes="ccccc" />
    <path
       id="path1444"
       style="fill:#c5c872;fill-opacity:0.957411;stroke:none;stroke-width:0.0099858;stroke-linecap:butt;stroke-linejoin:miter;stroke-miterlimit:4;stroke-dasharray:none;stroke-opacity:1"
       d="M 121.70834,66.145832 120.60349,65.06476 119.01186,64.955207 117.94267,64.394518 116.60891,64.097377 116.03995,63.632806 114.48449,63.089688 112.83239,61.537843 110.90021,60.456774 109.48376,59.92244 108.26575,59.266665 104.775,57.679165 106.89167,56.620832 113.24167,53.445832 115.35834,52.387499 117.87395,53.378136 118.6832,54.080419 121.70834,52.387499 123.825,53.445832 130.175,56.620832 132.29167,57.679165 130.55947,58.46258 128.91358,59.266665 128.73271,59.355031 132.29167,60.854165 Z" />
    <path
       id="path1446"
       style="fill:#b7bb53;fill-opacity:0.957411;stroke:none;stroke-width:0.0099858;stroke-linecap:butt;stroke-linejoin:miter;stroke-miterlimit:4;stroke-dasharray:none;stroke-opacity:1"
       d="M 122.76667,65.616665 118.98447,63.499998 118.48269,63.273139 118.23878,63.391477 116.9138,63.104674 115.1444,62.285085 112.6846,60.247999 110.48732,59.266665 105.83334,57.149998 114.3,52.916665 116.81561,53.907302 118.23878,55.141853 118.48269,55.260191 118.98447,55.033332 122.76667,52.916665 131.23334,57.149998 129.50114,57.933414 127.67438,58.825864 126.34991,59.266665 127.67438,59.707466 129.50114,60.599916 131.23334,61.383332 Z" />
    <path
       style="fill:#00b300;fill-opacity:1;stroke:none;stroke-width:0.0199716;stroke-linecap:butt;stroke-linejoin:miter;stroke-miterlimit:4;stroke-dasharray:none;stroke-opacity:1"
       d="M 135.46668,59.266664 152.40001,67.733331 169.33334,59.266664 152.40001,50.799998 Z"
       id="path1190"
       sodipodi:nodetypes="ccccc" />
    <path
       id="path1192"
       style="fill:#bdc86d;fill-opacity:1;stroke:none;stroke-width:0.0099858;stroke-linecap:butt;stroke-linejoin:miter;stroke-miterlimit:4;stroke-dasharray:none;stroke-opacity:1"
       d="M 149.22501,66.145831 147.10834,65.087498 140.75834,61.912498 138.64167,60.854164 140.75834,59.795831 143.1184,59.059959 144.99167,57.679164 147.10834,56.620831 148.747,55.581618 151.34167,54.357643 153.13148,53.83133 155.90947,54.135819 157.69167,54.683772 161.13034,56.805437 162.55528,57.766037 161.79166,58.580041 161.62978,59.924505 160.10135,60.907391 157.69167,61.602956 155.57501,62.970831 153.01599,63.880853 151.34167,65.087498 Z"
       sodipodi:nodetypes="ccccccccccccccccccccccc" />
    <path
       id="path1194"
       style="fill:#b7bb53;fill-opacity:0.957411;stroke:none;stroke-width:0.0099858;stroke-linecap:butt;stroke-linejoin:miter;stroke-miterlimit:4;stroke-dasharray:none;stroke-opacity:1"
       d="M 148.16667,65.616664 150.28334,64.558331 151.95788,63.351762 154.51667,62.441664 156.63334,61.073971 159.04325,60.378416 160.06972,59.23268 160.82455,58.116029 159.32296,57.144569 155.72877,55.283951 153.96937,54.631973 151.8527,55.174707 149.80512,56.110999 148.16667,57.149998 146.05001,58.208331 144.17696,59.588915 141.81667,60.324998 139.70001,61.383331 Z"
       sodipodi:nodetypes="ccccccccccccccccccc" />
    <path
       style="fill:#008000;fill-opacity:1;stroke:none;stroke-width:0.02;stroke-linecap:butt;stroke-linejoin:miter;stroke-miterlimit:4;stroke-dasharray:none;stroke-opacity:1"
       d="M 135.46668,59.266665 V 67.733331 L 152.40001,76.2 V 67.733331 Z"
       id="path1196"
       sodipodi:nodetypes="ccccc" />
    <path
       style="fill:#33ff33;fill-opacity:1;stroke:none;stroke-width:0.02;stroke-linecap:butt;stroke-linejoin:miter;stroke-miterlimit:4;stroke-dasharray:none;stroke-opacity:1"
       d="M 152.40001,76.2 V 67.733331 L 169.33334,59.266665 V 67.733331 Z"
       id="path1198"
       sodipodi:nodetypes="ccccc" />
    <path
       style="fill:#00b300;fill-opacity:1;stroke:none;stroke-width:0.0199716;stroke-linecap:butt;stroke-linejoin:miter;stroke-miterlimit:4;stroke-dasharray:none;stroke-opacity:1"
       d="M 33.866664,84.666665 16.933334,76.199998 4.33e-6,84.666665 16.933334,93.133331 Z"
       id="path2695"
       sodipodi:nodetypes="ccccc" />
    <path
       id="path2697"
       style="fill:#bdc86d;fill-opacity:1;stroke:none;stroke-width:0.0099858;stroke-linecap:butt;stroke-linejoin:miter;stroke-miterlimit:4;stroke-dasharray:none;stroke-opacity:1"
       d="M 20.108334,77.787498 22.225004,78.845831 28.575004,82.020831 30.691674,83.079165 28.575004,84.137498 26.214944,84.87337 24.341674,86.254165 22.225004,87.312498 20.586344,88.351711 17.991674,89.575686 16.201864,90.101999 13.423874,89.79751 11.641674,89.249557 8.2030043,87.127892 6.7780643,86.167292 7.5416843,85.353288 7.7035643,84.008824 9.2319943,83.025938 11.641674,82.330373 13.758334,80.962498 16.317354,80.052476 17.991674,78.845831 Z"
       sodipodi:nodetypes="ccccccccccccccccccccccc" />
    <path
       id="path2699"
       style="fill:#b7bb53;fill-opacity:0.957411;stroke:none;stroke-width:0.0099858;stroke-linecap:butt;stroke-linejoin:miter;stroke-miterlimit:4;stroke-dasharray:none;stroke-opacity:1"
       d="M 21.166674,78.316665 19.050004,79.374998 17.375464,80.581567 14.816674,81.491665 12.700004,82.859358 10.290094,83.554913 9.2636243,84.700649 8.5087943,85.8173 10.010384,86.78876 13.604574,88.649378 15.363974,89.301356 17.480644,88.758622 19.528224,87.82233 21.166674,86.783331 23.283334,85.724998 25.156384,84.344414 27.516674,83.608331 29.633334,82.549998 Z"
       sodipodi:nodetypes="ccccccccccccccccccc" />
    <path
       style="fill:#008000;fill-opacity:1;stroke:none;stroke-width:0.02;stroke-linecap:butt;stroke-linejoin:miter;stroke-miterlimit:4;stroke-dasharray:none;stroke-opacity:1"
       d="M 4.33e-6,84.666665 V 93.133331 L 16.933334,101.6 V 93.133331 Z"
       id="path2701"
       sodipodi:nodetypes="ccccc" />
    <path
       style="fill:#33ff33;fill-opacity:1;stroke:none;stroke-width:0.02;stroke-linecap:butt;stroke-linejoin:miter;stroke-miterlimit:4;stroke-dasharray:none;stroke-opacity:1"
       d="M 16.933334,101.6 V 93.133331 L 33.866664,84.666665 V 93.133331 Z"
       id="path2703"
       sodipodi:nodetypes="ccccc" />
    <path
       style="fill:#00b300;fill-opacity:1;stroke:none;stroke-width:0.0199716;stroke-linecap:butt;stroke-linejoin:miter;stroke-miterlimit:4;stroke-dasharray:none;stroke-opacity:1"
       d="M 33.86667,84.666665 50.8,76.199998 67.73333,84.666665 50.8,93.133331 Z"
       id="path2705"
       sodipodi:nodetypes="ccccc" />
    <path
       id="path2707"
       style="fill:#bdc86d;fill-opacity:1;stroke:none;stroke-width:0.0099858;stroke-linecap:butt;stroke-linejoin:miter;stroke-miterlimit:4;stroke-dasharray:none;stroke-opacity:1"
       d="M 47.625,77.787498 45.50833,78.845831 39.15833,82.020831 37.04166,83.079165 39.15833,84.137498 41.51839,84.87337 43.39166,86.254165 45.50833,87.312498 47.14699,88.351711 49.74166,89.575686 51.53147,90.101999 54.30946,89.79751 56.09166,89.249557 59.53033,87.127892 60.95527,86.167292 60.19165,85.353288 60.02977,84.008824 58.50134,83.025938 56.09166,82.330373 53.975,80.962498 51.41598,80.052476 49.74166,78.845831 Z"
       sodipodi:nodetypes="ccccccccccccccccccccccc" />
    <path
       id="path2709"
       style="fill:#b7bb53;fill-opacity:0.957411;stroke:none;stroke-width:0.0099858;stroke-linecap:butt;stroke-linejoin:miter;stroke-miterlimit:4;stroke-dasharray:none;stroke-opacity:1"
       d="M 46.56666,78.316665 48.68333,79.374998 50.35787,80.581567 52.91666,81.491665 55.03333,82.859358 57.44324,83.554913 58.46971,84.700649 59.22454,85.8173 57.72295,86.78876 54.12876,88.649378 52.36936,89.301356 50.25269,88.758622 48.20511,87.82233 46.56666,86.783331 44.45,85.724998 42.57695,84.344414 40.21666,83.608331 38.1,82.549998 Z"
       sodipodi:nodetypes="ccccccccccccccccccc" />
    <path
       style="fill:#008000;fill-opacity:1;stroke:none;stroke-width:0.02;stroke-linecap:butt;stroke-linejoin:miter;stroke-miterlimit:4;stroke-dasharray:none;stroke-opacity:1"
       d="M 33.86667,84.666665 V 93.133331 L 50.8,101.6 V 93.133331 Z"
       id="path2711"
       sodipodi:nodetypes="ccccc" />
    <path
       style="fill:#33ff33;fill-opacity:1;stroke:none;stroke-width:0.02;stroke-linecap:butt;stroke-linejoin:miter;stroke-miterlimit:4;stroke-dasharray:none;stroke-opacity:1"
       d="M 50.8,101.6 V 93.133331 L 67.73333,84.666665 V 93.133331 Z"
       id="path2713"
       sodipodi:nodetypes="ccccc" />
    <path
       style="fill:#00b300;fill-opacity:1;stroke:none;stroke-width:0.0199716;stroke-linecap:butt;stroke-linejoin:miter;stroke-miterlimit:4;stroke-dasharray:none;stroke-opacity:1"
       d="M 101.6,84.666664 84.66667,93.133331 67.733338,84.666664 84.66667,76.199998 Z"
       id="path2715"
       sodipodi:nodetypes="ccccc" />
    <path
       id="path2717"
       style="fill:#bdc86d;fill-opacity:1;stroke:none;stroke-width:0.0099858;stroke-linecap:butt;stroke-linejoin:miter;stroke-miterlimit:4;stroke-dasharray:none;stroke-opacity:1"
       d="M 87.84167,91.545831 89.95834,90.487498 96.30834,87.312498 98.42501,86.254164 96.30834,85.195831 93.94828,84.459959 92.07501,83.079164 89.95834,82.020831 88.31968,80.981618 85.72501,79.757643 83.9352,79.23133 81.15721,79.535819 79.37501,80.083772 75.93634,82.205437 74.5114,83.166037 75.27502,83.980041 75.4369,85.324505 76.96533,86.307391 79.37501,87.002956 81.49167,88.370831 84.05069,89.280853 85.72501,90.487498 Z"
       sodipodi:nodetypes="ccccccccccccccccccccccc" />
    <path
       id="path2719"
       style="fill:#b7bb53;fill-opacity:0.957411;stroke:none;stroke-width:0.0099858;stroke-linecap:butt;stroke-linejoin:miter;stroke-miterlimit:4;stroke-dasharray:none;stroke-opacity:1"
       d="M 88.90001,91.016664 86.78334,89.958331 85.1088,88.751762 82.55001,87.841664 80.43334,86.473971 78.02343,85.778416 76.99696,84.63268 76.24213,83.516029 77.74372,82.544569 81.33791,80.683951 83.09731,80.031973 85.21398,80.574707 87.26156,81.510999 88.90001,82.549998 91.01667,83.608331 92.88972,84.988915 95.25001,85.724998 97.36667,86.783331 Z"
       sodipodi:nodetypes="ccccccccccccccccccc" />
    <path
       style="fill:#008000;fill-opacity:1;stroke:none;stroke-width:0.02;stroke-linecap:butt;stroke-linejoin:miter;stroke-miterlimit:4;stroke-dasharray:none;stroke-opacity:1"
       d="M 67.733338,84.666665 V 93.133331 L 84.666668,101.6 V 93.133331 Z"
       id="path2721"
       sodipodi:nodetypes="ccccc" />
    <path
       style="fill:#33ff33;fill-opacity:1;stroke:none;stroke-width:0.02;stroke-linecap:butt;stroke-linejoin:miter;stroke-miterlimit:4;stroke-dasharray:none;stroke-opacity:1"
       d="M 84.666668,101.6 V 93.133331 L 101.6,84.666665 V 93.133331 Z"
       id="path2723"
       sodipodi:nodetypes="ccccc" />
  </g>
</svg>
